<svg width="14" height="14" viewBox="0 0 14 14" fill="none" xmlns="http://www.w3.org/2000/svg">
<path d="M13.8411 12.5914L10.6078 9.35816C11.4889 8.28057 11.9221 6.90555 11.8178 5.51751C11.7136 4.12947 11.0798 2.83462 10.0475 1.90078C9.01532 0.966938 7.66366 0.465562 6.27215 0.500354C4.88063 0.535146 3.55572 1.10345 2.57147 2.0877C1.58721 3.07196 1.01891 4.39687 0.984119 5.78838C0.949326 7.1799 1.4507 8.53156 2.38454 9.56377C3.31838 10.596 4.61324 11.2298 6.00127 11.3341C7.38931 11.4384 8.76433 11.0052 9.84193 10.1241L13.0751 13.3573C13.1773 13.456 13.3141 13.5106 13.4561 13.5093C13.5982 13.5081 13.734 13.4511 13.8345 13.3507C13.9349 13.2503 13.9919 13.1144 13.9931 12.9724C13.9943 12.8304 13.9397 12.6935 13.8411 12.5914ZM6.41643 10.266C5.55937 10.266 4.72157 10.0119 4.00896 9.5357C3.29634 9.05955 2.74093 8.38277 2.41295 7.59096C2.08497 6.79914 1.99915 5.92786 2.16636 5.08727C2.33356 4.24669 2.74627 3.47456 3.3523 2.86853C3.95832 2.26251 4.73045 1.84979 5.57104 1.68259C6.41162 1.51539 7.28291 1.6012 8.07472 1.92918C8.86654 2.25716 9.54331 2.81258 10.0195 3.52519C10.4956 4.2378 10.7498 5.07561 10.7498 5.93266C10.7485 7.08154 10.2915 8.18299 9.47913 8.99537C8.66675 9.80774 7.5653 10.2647 6.41643 10.266Z" fill="#FEFEFE"/>
</svg>
