<svg width="15" height="15" viewBox="0 0 15 15" fill="none" xmlns="http://www.w3.org/2000/svg">
<g clip-path="url(#clip0_1923_7105)">
<path d="M7.5 0C6.01664 0 4.5666 0.439867 3.33323 1.26398C2.09986 2.08809 1.13856 3.25943 0.570907 4.62987C0.00324965 6.00032 -0.145275 7.50832 0.144114 8.96318C0.433503 10.418 1.14781 11.7544 2.1967 12.8033C3.2456 13.8522 4.58197 14.5665 6.03683 14.8559C7.49168 15.1453 8.99968 14.9968 10.3701 14.4291C11.7406 13.8614 12.9119 12.9001 13.736 11.6668C14.5601 10.4334 15 8.98336 15 7.5C14.9979 5.51154 14.207 3.60513 12.8009 2.19907C11.3949 0.793018 9.48847 0.00215068 7.5 0V0ZM7.5 13.75C6.26387 13.75 5.0555 13.3834 4.02769 12.6967C2.99988 12.0099 2.1988 11.0338 1.72576 9.89177C1.25271 8.74973 1.12894 7.49307 1.3701 6.28069C1.61125 5.06831 2.20651 3.95466 3.08059 3.08058C3.95466 2.2065 5.06831 1.61125 6.28069 1.37009C7.49307 1.12893 8.74974 1.25271 9.89178 1.72575C11.0338 2.1988 12.0099 2.99988 12.6967 4.02769C13.3834 5.05549 13.75 6.26387 13.75 7.5C13.7482 9.15705 13.0891 10.7457 11.9174 11.9174C10.7457 13.0891 9.15705 13.7482 7.5 13.75ZM10.625 7.5C10.625 7.66576 10.5592 7.82473 10.4419 7.94194C10.3247 8.05915 10.1658 8.125 10 8.125H8.125V10C8.125 10.1658 8.05916 10.3247 7.94195 10.4419C7.82474 10.5592 7.66576 10.625 7.5 10.625C7.33424 10.625 7.17527 10.5592 7.05806 10.4419C6.94085 10.3247 6.875 10.1658 6.875 10V8.125H5C4.83424 8.125 4.67527 8.05915 4.55806 7.94194C4.44085 7.82473 4.375 7.66576 4.375 7.5C4.375 7.33424 4.44085 7.17527 4.55806 7.05806C4.67527 6.94085 4.83424 6.875 5 6.875H6.875V5C6.875 4.83424 6.94085 4.67527 7.05806 4.55806C7.17527 4.44085 7.33424 4.375 7.5 4.375C7.66576 4.375 7.82474 4.44085 7.94195 4.55806C8.05916 4.67527 8.125 4.83424 8.125 5V6.875H10C10.1658 6.875 10.3247 6.94085 10.4419 7.05806C10.5592 7.17527 10.625 7.33424 10.625 7.5Z" fill="#3569E7"/>
</g>
<defs>
<clipPath id="clip0_1923_7105">
<rect width="15" height="15" fill="white"/>
</clipPath>
</defs>
</svg>
