<svg width="15" height="15" viewBox="0 0 15 15" fill="none" xmlns="http://www.w3.org/2000/svg">
<path d="M13.75 5.62519V9.37519C13.75 10.9377 13.4375 12.0314 12.7375 12.7377L8.75 8.75019L13.5813 3.91895C13.6938 4.4127 13.75 4.97519 13.75 5.62519Z" stroke="#49B2FF" stroke-linecap="round" stroke-linejoin="round"/>
<path d="M13.5813 3.91875L3.91874 13.5812C2.03749 13.15 1.25 11.85 1.25 9.375V5.625C1.25 2.5 2.5 1.25 5.625 1.25H9.375C11.85 1.25 13.15 2.0375 13.5813 3.91875Z" stroke="#49B2FF" stroke-linecap="round" stroke-linejoin="round"/>
<path d="M12.7367 12.7375C12.0305 13.4375 10.9367 13.75 9.37423 13.75H5.62423C4.97423 13.75 4.41172 13.6937 3.91797 13.5812L8.74923 8.75L12.7367 12.7375Z" stroke="#49B2FF" stroke-linecap="round" stroke-linejoin="round"/>
<path d="M3.90077 4.9877C4.32577 3.15645 7.07578 3.15645 7.50078 4.9877C7.74453 6.0627 7.06952 6.9752 6.47577 7.5377C6.04452 7.9502 5.36328 7.9502 4.92578 7.5377C4.33203 6.9752 3.65077 6.0627 3.90077 4.9877Z" stroke="#49B2FF"/>
<path d="M5.68407 5.4375H5.68968" stroke="#49B2FF" stroke-linecap="round" stroke-linejoin="round"/>
</svg>
