<svg width="75px" height="75px" viewBox="-2.8 -2.8 33.60 33.60" version="1.1" xmlns="http://www.w3.org/2000/svg" xmlns:xlink="http://www.w3.org/1999/xlink" fill="#00000" stroke="#00000" transform="rotate(0)"><g id="SVGRepo_bgCarrier" stroke-width="0" transform="translate(0,0), scale(1)"></g><g id="SVGRepo_tracerCarrier" stroke-linecap="round" stroke-linejoin="round" stroke="#CCCCCC" stroke-width="0.44800000000000006"></g><g id="SVGRepo_iconCarrier"> <!-- Uploaded to: SVG Repo, www.svgrepo.com, Generator: SVG Repo Mixer Tools --> <title>ic_fluent_location_28_filled</title> <desc>Created with Sketch.</desc> <g id="ðŸ”-Product-Icons" stroke-width="0.00028" fill="none" fill-rule="evenodd"> <g id="ic_fluent_location_28_filled" fill="#007AF5" fill-rule="nonzero"> <path d="M14,2.25 C19.3847763,2.25 23.75,6.61522369 23.75,12 C23.75,16.1196455 20.855433,20.6092677 15.1401958,25.5178507 C14.4843932,26.0810927 13.5155806,26.0810925 12.8571694,25.5155993 L12.4794181,25.1881258 C7.01712282,20.4088515 4.25,16.0278108 4.25,12 C4.25,6.61522369 8.61522369,2.25 14,2.25 Z M14,8.25 C11.9289322,8.25 10.25,9.92893219 10.25,12 C10.25,14.0710678 11.9289322,15.75 14,15.75 C16.0710678,15.75 17.75,14.0710678 17.75,12 C17.75,9.92893219 16.0710678,8.25 14,8.25 Z" id="ðŸŽ¨-Color"> </path> </g> </g> </g></svg>