<svg width="13" height="13" viewBox="0 0 13 13" fill="none" xmlns="http://www.w3.org/2000/svg">
<g clip-path="url(#clip0_1555_23143)">
<path d="M3.79167 7.58333C3.79167 7.72699 3.7346 7.86477 3.63302 7.96635C3.53143 8.06793 3.39366 8.125 3.25 8.125H2.70833C2.56467 8.125 2.4269 8.06793 2.32532 7.96635C2.22374 7.86477 2.16667 7.72699 2.16667 7.58333C2.16667 7.43967 2.22374 7.3019 2.32532 7.20032C2.4269 7.09874 2.56467 7.04167 2.70833 7.04167H3.25C3.39366 7.04167 3.53143 7.09874 3.63302 7.20032C3.7346 7.3019 3.79167 7.43967 3.79167 7.58333ZM5.95833 7.04167H5.41667C5.27301 7.04167 5.13523 7.09874 5.03365 7.20032C4.93207 7.3019 4.875 7.43967 4.875 7.58333C4.875 7.72699 4.93207 7.86477 5.03365 7.96635C5.13523 8.06793 5.27301 8.125 5.41667 8.125H5.95833C6.10199 8.125 6.23977 8.06793 6.34135 7.96635C6.44293 7.86477 6.5 7.72699 6.5 7.58333C6.5 7.43967 6.44293 7.3019 6.34135 7.20032C6.23977 7.09874 6.10199 7.04167 5.95833 7.04167ZM3.25 9.20833H2.70833C2.56467 9.20833 2.4269 9.2654 2.32532 9.36698C2.22374 9.46857 2.16667 9.60634 2.16667 9.75C2.16667 9.89366 2.22374 10.0314 2.32532 10.133C2.4269 10.2346 2.56467 10.2917 2.70833 10.2917H3.25C3.39366 10.2917 3.53143 10.2346 3.63302 10.133C3.7346 10.0314 3.79167 9.89366 3.79167 9.75C3.79167 9.60634 3.7346 9.46857 3.63302 9.36698C3.53143 9.2654 3.39366 9.20833 3.25 9.20833ZM5.95833 9.20833H5.41667C5.27301 9.20833 5.13523 9.2654 5.03365 9.36698C4.93207 9.46857 4.875 9.60634 4.875 9.75C4.875 9.89366 4.93207 10.0314 5.03365 10.133C5.13523 10.2346 5.27301 10.2917 5.41667 10.2917H5.95833C6.10199 10.2917 6.23977 10.2346 6.34135 10.133C6.44293 10.0314 6.5 9.89366 6.5 9.75C6.5 9.60634 6.44293 9.46857 6.34135 9.36698C6.23977 9.2654 6.10199 9.20833 5.95833 9.20833ZM3.25 2.70833H2.70833C2.56467 2.70833 2.4269 2.7654 2.32532 2.86698C2.22374 2.96857 2.16667 3.10634 2.16667 3.25C2.16667 3.39366 2.22374 3.53143 2.32532 3.63302C2.4269 3.7346 2.56467 3.79167 2.70833 3.79167H3.25C3.39366 3.79167 3.53143 3.7346 3.63302 3.63302C3.7346 3.53143 3.79167 3.39366 3.79167 3.25C3.79167 3.10634 3.7346 2.96857 3.63302 2.86698C3.53143 2.7654 3.39366 2.70833 3.25 2.70833ZM5.95833 2.70833H5.41667C5.27301 2.70833 5.13523 2.7654 5.03365 2.86698C4.93207 2.96857 4.875 3.10634 4.875 3.25C4.875 3.39366 4.93207 3.53143 5.03365 3.63302C5.13523 3.7346 5.27301 3.79167 5.41667 3.79167H5.95833C6.10199 3.79167 6.23977 3.7346 6.34135 3.63302C6.44293 3.53143 6.5 3.39366 6.5 3.25C6.5 3.10634 6.44293 2.96857 6.34135 2.86698C6.23977 2.7654 6.10199 2.70833 5.95833 2.70833ZM3.25 4.875H2.70833C2.56467 4.875 2.4269 4.93207 2.32532 5.03365C2.22374 5.13523 2.16667 5.27301 2.16667 5.41667C2.16667 5.56033 2.22374 5.6981 2.32532 5.79968C2.4269 5.90127 2.56467 5.95833 2.70833 5.95833H3.25C3.39366 5.95833 3.53143 5.90127 3.63302 5.79968C3.7346 5.6981 3.79167 5.56033 3.79167 5.41667C3.79167 5.27301 3.7346 5.13523 3.63302 5.03365C3.53143 4.93207 3.39366 4.875 3.25 4.875ZM5.95833 4.875H5.41667C5.27301 4.875 5.13523 4.93207 5.03365 5.03365C4.93207 5.13523 4.875 5.27301 4.875 5.41667C4.875 5.56033 4.93207 5.6981 5.03365 5.79968C5.13523 5.90127 5.27301 5.95833 5.41667 5.95833H5.95833C6.10199 5.95833 6.23977 5.90127 6.34135 5.79968C6.44293 5.6981 6.5 5.56033 6.5 5.41667C6.5 5.27301 6.44293 5.13523 6.34135 5.03365C6.23977 4.93207 6.10199 4.875 5.95833 4.875ZM13 5.41667V10.2917C12.9991 11.0097 12.7135 11.6981 12.2058 12.2058C11.6981 12.7135 11.0097 12.9991 10.2917 13H2.70833C1.9903 12.9991 1.30193 12.7135 0.794202 12.2058C0.286478 11.6981 0.00086009 11.0097 0 10.2917L0 2.70833C0.00086009 1.9903 0.286478 1.30193 0.794202 0.794202C1.30193 0.286478 1.9903 0.00086009 2.70833 0L5.95833 0C6.67636 0.00086009 7.36474 0.286478 7.87246 0.794202C8.38019 1.30193 8.66581 1.9903 8.66667 2.70833H10.2917C11.0097 2.70919 11.6981 2.99481 12.2058 3.50254C12.7135 4.01026 12.9991 4.69864 13 5.41667ZM2.70833 11.9167H7.58333V2.70833C7.58333 2.27736 7.41213 1.86403 7.10738 1.55928C6.80264 1.25454 6.38931 1.08333 5.95833 1.08333H2.70833C2.27736 1.08333 1.86403 1.25454 1.55928 1.55928C1.25454 1.86403 1.08333 2.27736 1.08333 2.70833V10.2917C1.08333 10.7226 1.25454 11.136 1.55928 11.4407C1.86403 11.7455 2.27736 11.9167 2.70833 11.9167ZM11.9167 5.41667C11.9167 4.98569 11.7455 4.57236 11.4407 4.26762C11.136 3.96287 10.7226 3.79167 10.2917 3.79167H8.66667V11.9167H10.2917C10.7226 11.9167 11.136 11.7455 11.4407 11.4407C11.7455 11.136 11.9167 10.7226 11.9167 10.2917V5.41667ZM10.2917 7.04167C10.1845 7.04167 10.0798 7.07344 9.99073 7.13295C9.90166 7.19247 9.83223 7.27707 9.79123 7.37605C9.75023 7.47502 9.73951 7.58393 9.76041 7.68901C9.78131 7.79408 9.8329 7.8906 9.90865 7.96635C9.9844 8.0421 10.0809 8.09369 10.186 8.11459C10.2911 8.13549 10.4 8.12477 10.499 8.08377C10.5979 8.04277 10.6825 7.97334 10.742 7.88427C10.8016 7.79519 10.8333 7.69046 10.8333 7.58333C10.8333 7.43967 10.7763 7.3019 10.6747 7.20032C10.5731 7.09874 10.4353 7.04167 10.2917 7.04167ZM10.2917 9.20833C10.1845 9.20833 10.0798 9.2401 9.99073 9.29962C9.90166 9.35914 9.83223 9.44374 9.79123 9.54271C9.75023 9.64169 9.73951 9.7506 9.76041 9.85567C9.78131 9.96075 9.8329 10.0573 9.90865 10.133C9.9844 10.2088 10.0809 10.2604 10.186 10.2813C10.2911 10.3022 10.4 10.2914 10.499 10.2504C10.5979 10.2094 10.6825 10.14 10.742 10.0509C10.8016 9.96186 10.8333 9.85713 10.8333 9.75C10.8333 9.60634 10.7763 9.46857 10.6747 9.36698C10.5731 9.2654 10.4353 9.20833 10.2917 9.20833ZM10.2917 4.875C10.1845 4.875 10.0798 4.90677 9.99073 4.96629C9.90166 5.02581 9.83223 5.1104 9.79123 5.20938C9.75023 5.30836 9.73951 5.41727 9.76041 5.52234C9.78131 5.62741 9.8329 5.72393 9.90865 5.79968C9.9844 5.87544 10.0809 5.92703 10.186 5.94793C10.2911 5.96883 10.4 5.9581 10.499 5.9171C10.5979 5.8761 10.6825 5.80668 10.742 5.7176C10.8016 5.62852 10.8333 5.5238 10.8333 5.41667C10.8333 5.27301 10.7763 5.13523 10.6747 5.03365C10.5731 4.93207 10.4353 4.875 10.2917 4.875Z" fill="#49B2FF"/>
</g>
<defs>
<clipPath id="clip0_1555_23143">
<rect width="13" height="13" fill="white"/>
</clipPath>
</defs>
</svg>
