<svg width="18" height="18" viewBox="0 0 18 18" fill="none" xmlns="http://www.w3.org/2000/svg">
<g clip-path="url(#clip0_1576_23014)">
<path d="M5.25 10.5C5.25 10.6989 5.17098 10.8897 5.03033 11.0303C4.88968 11.171 4.69891 11.25 4.5 11.25H3.75C3.55109 11.25 3.36032 11.171 3.21967 11.0303C3.07902 10.8897 3 10.6989 3 10.5C3 10.3011 3.07902 10.1103 3.21967 9.96967C3.36032 9.82902 3.55109 9.75 3.75 9.75H4.5C4.69891 9.75 4.88968 9.82902 5.03033 9.96967C5.17098 10.1103 5.25 10.3011 5.25 10.5ZM8.25 9.75H7.5C7.30109 9.75 7.11032 9.82902 6.96967 9.96967C6.82902 10.1103 6.75 10.3011 6.75 10.5C6.75 10.6989 6.82902 10.8897 6.96967 11.0303C7.11032 11.171 7.30109 11.25 7.5 11.25H8.25C8.44891 11.25 8.63968 11.171 8.78033 11.0303C8.92098 10.8897 9 10.6989 9 10.5C9 10.3011 8.92098 10.1103 8.78033 9.96967C8.63968 9.82902 8.44891 9.75 8.25 9.75ZM4.5 12.75H3.75C3.55109 12.75 3.36032 12.829 3.21967 12.9697C3.07902 13.1103 3 13.3011 3 13.5C3 13.6989 3.07902 13.8897 3.21967 14.0303C3.36032 14.171 3.55109 14.25 3.75 14.25H4.5C4.69891 14.25 4.88968 14.171 5.03033 14.0303C5.17098 13.8897 5.25 13.6989 5.25 13.5C5.25 13.3011 5.17098 13.1103 5.03033 12.9697C4.88968 12.829 4.69891 12.75 4.5 12.75ZM8.25 12.75H7.5C7.30109 12.75 7.11032 12.829 6.96967 12.9697C6.82902 13.1103 6.75 13.3011 6.75 13.5C6.75 13.6989 6.82902 13.8897 6.96967 14.0303C7.11032 14.171 7.30109 14.25 7.5 14.25H8.25C8.44891 14.25 8.63968 14.171 8.78033 14.0303C8.92098 13.8897 9 13.6989 9 13.5C9 13.3011 8.92098 13.1103 8.78033 12.9697C8.63968 12.829 8.44891 12.75 8.25 12.75ZM4.5 3.75H3.75C3.55109 3.75 3.36032 3.82902 3.21967 3.96967C3.07902 4.11032 3 4.30109 3 4.5C3 4.69891 3.07902 4.88968 3.21967 5.03033C3.36032 5.17098 3.55109 5.25 3.75 5.25H4.5C4.69891 5.25 4.88968 5.17098 5.03033 5.03033C5.17098 4.88968 5.25 4.69891 5.25 4.5C5.25 4.30109 5.17098 4.11032 5.03033 3.96967C4.88968 3.82902 4.69891 3.75 4.5 3.75ZM8.25 3.75H7.5C7.30109 3.75 7.11032 3.82902 6.96967 3.96967C6.82902 4.11032 6.75 4.30109 6.75 4.5C6.75 4.69891 6.82902 4.88968 6.96967 5.03033C7.11032 5.17098 7.30109 5.25 7.5 5.25H8.25C8.44891 5.25 8.63968 5.17098 8.78033 5.03033C8.92098 4.88968 9 4.69891 9 4.5C9 4.30109 8.92098 4.11032 8.78033 3.96967C8.63968 3.82902 8.44891 3.75 8.25 3.75ZM4.5 6.75H3.75C3.55109 6.75 3.36032 6.82902 3.21967 6.96967C3.07902 7.11032 3 7.30109 3 7.5C3 7.69891 3.07902 7.88968 3.21967 8.03033C3.36032 8.17098 3.55109 8.25 3.75 8.25H4.5C4.69891 8.25 4.88968 8.17098 5.03033 8.03033C5.17098 7.88968 5.25 7.69891 5.25 7.5C5.25 7.30109 5.17098 7.11032 5.03033 6.96967C4.88968 6.82902 4.69891 6.75 4.5 6.75ZM8.25 6.75H7.5C7.30109 6.75 7.11032 6.82902 6.96967 6.96967C6.82902 7.11032 6.75 7.30109 6.75 7.5C6.75 7.69891 6.82902 7.88968 6.96967 8.03033C7.11032 8.17098 7.30109 8.25 7.5 8.25H8.25C8.44891 8.25 8.63968 8.17098 8.78033 8.03033C8.92098 7.88968 9 7.69891 9 7.5C9 7.30109 8.92098 7.11032 8.78033 6.96967C8.63968 6.82902 8.44891 6.75 8.25 6.75ZM18 7.5V14.25C17.9988 15.2442 17.6033 16.1973 16.9003 16.9003C16.1973 17.6033 15.2442 17.9988 14.25 18H3.75C2.7558 17.9988 1.80267 17.6033 1.09966 16.9003C0.396661 16.1973 0.00119089 15.2442 0 14.25L0 3.75C0.00119089 2.7558 0.396661 1.80267 1.09966 1.09966C1.80267 0.396661 2.7558 0.00119089 3.75 0L8.25 0C9.2442 0.00119089 10.1973 0.396661 10.9003 1.09966C11.6033 1.80267 11.9988 2.7558 12 3.75H14.25C15.2442 3.75119 16.1973 4.14666 16.9003 4.84966C17.6033 5.55267 17.9988 6.5058 18 7.5ZM3.75 16.5H10.5V3.75C10.5 3.15326 10.2629 2.58097 9.84099 2.15901C9.41903 1.73705 8.84674 1.5 8.25 1.5H3.75C3.15326 1.5 2.58097 1.73705 2.15901 2.15901C1.73705 2.58097 1.5 3.15326 1.5 3.75V14.25C1.5 14.8467 1.73705 15.419 2.15901 15.841C2.58097 16.2629 3.15326 16.5 3.75 16.5ZM16.5 7.5C16.5 6.90326 16.2629 6.33097 15.841 5.90901C15.419 5.48705 14.8467 5.25 14.25 5.25H12V16.5H14.25C14.8467 16.5 15.419 16.2629 15.841 15.841C16.2629 15.419 16.5 14.8467 16.5 14.25V7.5ZM14.25 9.75C14.1017 9.75 13.9567 9.79399 13.8333 9.8764C13.71 9.95881 13.6139 10.0759 13.5571 10.213C13.5003 10.35 13.4855 10.5008 13.5144 10.6463C13.5434 10.7918 13.6148 10.9254 13.7197 11.0303C13.8246 11.1352 13.9582 11.2066 14.1037 11.2356C14.2492 11.2645 14.4 11.2497 14.537 11.1929C14.6741 11.1361 14.7912 11.04 14.8736 10.9167C14.956 10.7933 15 10.6483 15 10.5C15 10.3011 14.921 10.1103 14.7803 9.96967C14.6397 9.82902 14.4489 9.75 14.25 9.75ZM14.25 12.75C14.1017 12.75 13.9567 12.794 13.8333 12.8764C13.71 12.9588 13.6139 13.0759 13.5571 13.213C13.5003 13.35 13.4855 13.5008 13.5144 13.6463C13.5434 13.7918 13.6148 13.9254 13.7197 14.0303C13.8246 14.1352 13.9582 14.2066 14.1037 14.2356C14.2492 14.2645 14.4 14.2497 14.537 14.1929C14.6741 14.1361 14.7912 14.04 14.8736 13.9167C14.956 13.7933 15 13.6483 15 13.5C15 13.3011 14.921 13.1103 14.7803 12.9697C14.6397 12.829 14.4489 12.75 14.25 12.75ZM14.25 6.75C14.1017 6.75 13.9567 6.79399 13.8333 6.8764C13.71 6.95881 13.6139 7.07594 13.5571 7.21299C13.5003 7.35003 13.4855 7.50083 13.5144 7.64632C13.5434 7.7918 13.6148 7.92544 13.7197 8.03033C13.8246 8.13522 13.9582 8.20665 14.1037 8.23559C14.2492 8.26453 14.4 8.24968 14.537 8.19291C14.6741 8.13614 14.7912 8.04002 14.8736 7.91668C14.956 7.79334 15 7.64834 15 7.5C15 7.30109 14.921 7.11032 14.7803 6.96967C14.6397 6.82902 14.4489 6.75 14.25 6.75Z" fill="#374957"/>
</g>
<defs>
<clipPath id="clip0_1576_23014">
<rect width="18" height="18" fill="white"/>
</clipPath>
</defs>
</svg>
