<svg width="25" height="24" viewBox="0 0 25 24" fill="none" xmlns="http://www.w3.org/2000/svg">
<path d="M12.5 12C15.2614 12 17.5 9.76142 17.5 7C17.5 4.23858 15.2614 2 12.5 2C9.73858 2 7.5 4.23858 7.5 7C7.5 9.76142 9.73858 12 12.5 12Z" stroke="#007AF5" stroke-width="1.5" stroke-linecap="round" stroke-linejoin="round"/>
<path d="M19.7101 15.74L16.17 19.2801C16.03 19.4201 15.9 19.68 15.87 19.87L15.68 21.22C15.61 21.71 15.95 22.05 16.44 21.98L17.79 21.79C17.98 21.76 18.25 21.63 18.38 21.49L21.92 17.95C22.53 17.34 22.82 16.63 21.92 15.73C21.03 14.84 20.3201 15.13 19.7101 15.74Z" stroke="#007AF5" stroke-width="1.5" stroke-miterlimit="10" stroke-linecap="round" stroke-linejoin="round"/>
<path d="M19.2001 16.25C19.5001 17.33 20.34 18.17 21.42 18.47" stroke="#007AF5" stroke-width="1.5" stroke-miterlimit="10" stroke-linecap="round" stroke-linejoin="round"/>
<path d="M3.90991 22C3.90991 18.13 7.75994 15 12.4999 15C13.5399 15 14.5399 15.15 15.4699 15.43" stroke="#007AF5" stroke-width="1.5" stroke-linecap="round" stroke-linejoin="round"/>
</svg>
