<svg width="25" height="24" viewBox="0 0 25 24" fill="none" xmlns="http://www.w3.org/2000/svg">
<path d="M13.4343 18.9998C13.2365 18.999 13.0434 18.9395 12.8794 18.829C12.7155 18.7184 12.5879 18.5617 12.513 18.3787C12.4381 18.1956 12.4191 17.9945 12.4585 17.8007C12.4979 17.6069 12.5939 17.4291 12.7343 17.2898L17.3343 12.7098C17.428 12.6169 17.5024 12.5063 17.5532 12.3844C17.604 12.2625 17.6301 12.1318 17.6301 11.9998C17.6301 11.8678 17.604 11.7371 17.5532 11.6152C17.5024 11.4934 17.428 11.3828 17.3343 11.2898L12.7343 6.70982C12.6406 6.61685 12.5662 6.50625 12.5154 6.38439C12.4646 6.26253 12.4385 6.13183 12.4385 5.99982C12.4385 5.8678 12.4646 5.7371 12.5154 5.61524C12.5662 5.49338 12.6406 5.38278 12.7343 5.28982C12.9216 5.10356 13.1751 4.99902 13.4393 4.99902C13.7035 4.99902 13.9569 5.10356 14.1443 5.28982L18.7343 9.87982C19.2961 10.4423 19.6117 11.2048 19.6117 11.9998C19.6117 12.7948 19.2961 13.5573 18.7343 14.1198L14.1443 18.7098C14.0508 18.8025 13.94 18.8758 13.8182 18.9256C13.6964 18.9754 13.5659 19.0006 13.4343 18.9998Z" fill="white"/>
<path d="M6.43428 18.9998C6.23651 18.999 6.04343 18.9395 5.87944 18.829C5.71546 18.7184 5.58794 18.5617 5.51302 18.3787C5.43809 18.1956 5.41912 17.9945 5.45851 17.8007C5.49789 17.6069 5.59386 17.4291 5.73428 17.2898L11.0243 11.9998L5.73428 6.70982C5.64056 6.61685 5.56616 6.50625 5.51539 6.38439C5.46462 6.26253 5.43849 6.13183 5.43849 5.99982C5.43849 5.8678 5.46462 5.7371 5.51539 5.61524C5.56616 5.49338 5.64056 5.38278 5.73428 5.28982C5.92165 5.10356 6.1751 4.99902 6.43928 4.99902C6.70347 4.99902 6.95692 5.10356 7.14428 5.28982L13.1443 11.2898C13.238 11.3828 13.3124 11.4934 13.3632 11.6152C13.4139 11.7371 13.4401 11.8678 13.4401 11.9998C13.4401 12.1318 13.4139 12.2625 13.3632 12.3844C13.3124 12.5063 13.238 12.6169 13.1443 12.7098L7.14428 18.7098C7.05084 18.8025 6.94003 18.8758 6.81819 18.9256C6.69635 18.9754 6.56589 19.0006 6.43428 18.9998Z" fill="white"/>
</svg>
