<svg width="19" height="19" viewBox="0 0 19 19" fill="none" xmlns="http://www.w3.org/2000/svg">
<g clip-path="url(#clip0_1825_24651)">
<path d="M5.54167 0H3.16667C2.32681 0 1.52136 0.33363 0.927495 0.927495C0.33363 1.52136 0 2.32681 0 3.16667L0 5.54167C0 6.38152 0.33363 7.18697 0.927495 7.78084C1.52136 8.3747 2.32681 8.70833 3.16667 8.70833H5.54167C6.38152 8.70833 7.18697 8.3747 7.78084 7.78084C8.3747 7.18697 8.70833 6.38152 8.70833 5.54167V3.16667C8.70833 2.32681 8.3747 1.52136 7.78084 0.927495C7.18697 0.33363 6.38152 0 5.54167 0V0ZM7.125 5.54167C7.125 5.96159 6.95818 6.36432 6.66125 6.66125C6.36432 6.95818 5.96159 7.125 5.54167 7.125H3.16667C2.74674 7.125 2.34401 6.95818 2.04708 6.66125C1.75015 6.36432 1.58333 5.96159 1.58333 5.54167V3.16667C1.58333 2.74674 1.75015 2.34401 2.04708 2.04708C2.34401 1.75015 2.74674 1.58333 3.16667 1.58333H5.54167C5.96159 1.58333 6.36432 1.75015 6.66125 2.04708C6.95818 2.34401 7.125 2.74674 7.125 3.16667V5.54167Z" fill="white"/>
<path d="M15.8337 0H13.4587C12.6188 0 11.8134 0.33363 11.2195 0.927496C10.6256 1.52136 10.292 2.32682 10.292 3.16667V5.54167C10.292 6.38152 10.6256 7.18698 11.2195 7.78084C11.8134 8.37471 12.6188 8.70834 13.4587 8.70834H15.8337C16.6735 8.70834 17.479 8.37471 18.0728 7.78084C18.6667 7.18698 19.0003 6.38152 19.0003 5.54167V3.16667C19.0003 2.32682 18.6667 1.52136 18.0728 0.927496C17.479 0.33363 16.6735 0 15.8337 0V0ZM17.417 5.54167C17.417 5.9616 17.2502 6.36432 16.9532 6.66126C16.6563 6.95819 16.2536 7.125 15.8337 7.125H13.4587C13.0387 7.125 12.636 6.95819 12.3391 6.66126C12.0421 6.36432 11.8753 5.9616 11.8753 5.54167V3.16667C11.8753 2.74674 12.0421 2.34401 12.3391 2.04708C12.636 1.75015 13.0387 1.58333 13.4587 1.58333H15.8337C16.2536 1.58333 16.6563 1.75015 16.9532 2.04708C17.2502 2.34401 17.417 2.74674 17.417 3.16667V5.54167Z" fill="white"/>
<path d="M5.54167 10.292H3.16667C2.32681 10.292 1.52136 10.6256 0.927495 11.2195C0.33363 11.8134 0 12.6188 0 13.4587L0 15.8337C0 16.6735 0.33363 17.479 0.927495 18.0728C1.52136 18.6667 2.32681 19.0003 3.16667 19.0003H5.54167C6.38152 19.0003 7.18697 18.6667 7.78084 18.0728C8.3747 17.479 8.70833 16.6735 8.70833 15.8337V13.4587C8.70833 12.6188 8.3747 11.8134 7.78084 11.2195C7.18697 10.6256 6.38152 10.292 5.54167 10.292ZM7.125 15.8337C7.125 16.2536 6.95818 16.6563 6.66125 16.9533C6.36432 17.2502 5.96159 17.417 5.54167 17.417H3.16667C2.74674 17.417 2.34401 17.2502 2.04708 16.9533C1.75015 16.6563 1.58333 16.2536 1.58333 15.8337V13.4587C1.58333 13.0387 1.75015 12.636 2.04708 12.3391C2.34401 12.0421 2.74674 11.8753 3.16667 11.8753H5.54167C5.96159 11.8753 6.36432 12.0421 6.66125 12.3391C6.95818 12.636 7.125 13.0387 7.125 13.4587V15.8337Z" fill="white"/>
<path d="M15.8337 10.292H13.4587C12.6188 10.292 11.8134 10.6256 11.2195 11.2195C10.6256 11.8134 10.292 12.6188 10.292 13.4587V15.8337C10.292 16.6735 10.6256 17.479 11.2195 18.0728C11.8134 18.6667 12.6188 19.0003 13.4587 19.0003H15.8337C16.6735 19.0003 17.479 18.6667 18.0728 18.0728C18.6667 17.479 19.0003 16.6735 19.0003 15.8337V13.4587C19.0003 12.6188 18.6667 11.8134 18.0728 11.2195C17.479 10.6256 16.6735 10.292 15.8337 10.292ZM17.417 15.8337C17.417 16.2536 17.2502 16.6563 16.9532 16.9533C16.6563 17.2502 16.2536 17.417 15.8337 17.417H13.4587C13.0387 17.417 12.636 17.2502 12.3391 16.9533C12.0421 16.6563 11.8753 16.2536 11.8753 15.8337V13.4587C11.8753 13.0387 12.0421 12.636 12.3391 12.3391C12.636 12.0421 13.0387 11.8753 13.4587 11.8753H15.8337C16.2536 11.8753 16.6563 12.0421 16.9532 12.3391C17.2502 12.636 17.417 13.0387 17.417 13.4587V15.8337Z" fill="white"/>
</g>
<defs>
<clipPath id="clip0_1825_24651">
<rect width="19" height="19" fill="white"/>
</clipPath>
</defs>
</svg>
