<svg width="18" height="19" viewBox="0 0 18 19" fill="none" xmlns="http://www.w3.org/2000/svg">
<path d="M8.25 9.42521V13.2502C8.25 13.4491 8.32902 13.6399 8.46967 13.7805C8.61032 13.9212 8.80109 14.0002 9 14.0002C9.19891 14.0002 9.38968 13.9212 9.53033 13.7805C9.67098 13.6399 9.75 13.4491 9.75 13.2502V9.42521C10.6605 9.23935 11.4696 8.72202 12.0204 7.97352C12.5712 7.22502 12.8244 6.29867 12.731 5.37407C12.6376 4.44947 12.2042 3.59248 11.5149 2.96926C10.8255 2.34604 9.92931 2.00098 9 2.00098C8.07069 2.00098 7.17449 2.34604 6.48514 2.96926C5.79578 3.59248 5.36239 4.44947 5.26899 5.37407C5.17559 6.29867 5.42882 7.22502 5.9796 7.97352C6.53038 8.72202 7.33947 9.23935 8.25 9.42521ZM9 3.50021C9.44501 3.50021 9.88002 3.63217 10.25 3.8794C10.62 4.12664 10.9084 4.47804 11.0787 4.88917C11.249 5.30031 11.2936 5.75271 11.2068 6.18916C11.12 6.62562 10.9057 7.02653 10.591 7.3412C10.2763 7.65587 9.87541 7.87016 9.43895 7.95698C9.0025 8.0438 8.5501 7.99924 8.13896 7.82894C7.72783 7.65864 7.37643 7.37025 7.12919 7.00024C6.88196 6.63023 6.75 6.19522 6.75 5.75021C6.75 5.15347 6.98705 4.58118 7.40901 4.15922C7.83097 3.73726 8.40326 3.50021 9 3.50021ZM12.1575 11.3152C12.059 11.2945 11.9574 11.2934 11.8585 11.312C11.7596 11.3306 11.6653 11.3685 11.581 11.4235C11.4968 11.4785 11.4242 11.5496 11.3674 11.6327C11.3106 11.7158 11.2707 11.8092 11.25 11.9077C11.2293 12.0062 11.2282 12.1078 11.2468 12.2067C11.2654 12.3056 11.3033 12.3999 11.3583 12.4842C11.4133 12.5684 11.4844 12.641 11.5675 12.6978C11.6506 12.7546 11.744 12.7945 11.8425 12.8152C13.545 13.1527 14.25 13.7602 14.25 14.0002C14.25 14.4352 12.4125 15.5002 9 15.5002C5.5875 15.5002 3.75 14.4352 3.75 14.0002C3.75 13.7602 4.455 13.1527 6.1575 12.7852C6.25599 12.7645 6.34944 12.7246 6.43252 12.6678C6.5156 12.611 6.58668 12.5384 6.6417 12.4542C6.69672 12.3699 6.7346 12.2756 6.75318 12.1767C6.77176 12.0778 6.77068 11.9762 6.75 11.8777C6.72932 11.7792 6.68944 11.6858 6.63264 11.6027C6.57584 11.5196 6.50323 11.4485 6.41896 11.3935C6.33469 11.3385 6.24041 11.3006 6.1415 11.282C6.04259 11.2634 5.94099 11.2645 5.8425 11.2852C3.5625 11.8102 2.25 12.7927 2.25 14.0002C2.25 15.9727 5.6475 17.0002 9 17.0002C12.3525 17.0002 15.75 15.9727 15.75 14.0002C15.75 12.7927 14.4375 11.8102 12.1575 11.3152Z" fill="white"/>
</svg>
