<svg width="19" height="20" viewBox="0 0 19 20" fill="none" xmlns="http://www.w3.org/2000/svg">
<g clip-path="url(#clip0_1825_24654)">
<path d="M14.2503 0.5H6.33366C5.56434 0.501012 4.812 0.726183 4.16862 1.14798C3.52524 1.56977 3.01872 2.16991 2.71099 2.875H1.58366C1.3737 2.875 1.17233 2.95841 1.02387 3.10687C0.8754 3.25534 0.791992 3.4567 0.791992 3.66667C0.791992 3.87663 0.8754 4.07799 1.02387 4.22646C1.17233 4.37493 1.3737 4.45833 1.58366 4.45833H2.37533V6.04167H1.58366C1.3737 6.04167 1.17233 6.12507 1.02387 6.27354C0.8754 6.42201 0.791992 6.62337 0.791992 6.83333C0.791992 7.0433 0.8754 7.24466 1.02387 7.39313C1.17233 7.54159 1.3737 7.625 1.58366 7.625H2.37533V9.20833H1.58366C1.3737 9.20833 1.17233 9.29174 1.02387 9.44021C0.8754 9.58867 0.791992 9.79004 0.791992 10C0.791992 10.21 0.8754 10.4113 1.02387 10.5598C1.17233 10.7083 1.3737 10.7917 1.58366 10.7917H2.37533V12.375H1.58366C1.3737 12.375 1.17233 12.4584 1.02387 12.6069C0.8754 12.7553 0.791992 12.9567 0.791992 13.1667C0.791992 13.3766 0.8754 13.578 1.02387 13.7265C1.17233 13.8749 1.3737 13.9583 1.58366 13.9583H2.37533V15.5417H1.58366C1.3737 15.5417 1.17233 15.6251 1.02387 15.7735C0.8754 15.922 0.791992 16.1234 0.791992 16.3333C0.791992 16.5433 0.8754 16.7447 1.02387 16.8931C1.17233 17.0416 1.3737 17.125 1.58366 17.125H2.71099C3.01872 17.8301 3.52524 18.4302 4.16862 18.852C4.812 19.2738 5.56434 19.499 6.33366 19.5H14.2503C15.2998 19.4987 16.3058 19.0813 17.0479 18.3392C17.79 17.5972 18.2074 16.5911 18.2087 15.5417V4.45833C18.2074 3.4089 17.79 2.40282 17.0479 1.66076C16.3058 0.918698 15.2998 0.501257 14.2503 0.5V0.5ZM16.6253 15.5417C16.6253 16.1716 16.3751 16.7756 15.9297 17.221C15.4843 17.6664 14.8802 17.9167 14.2503 17.9167H6.33366C5.70377 17.9167 5.09968 17.6664 4.65428 17.221C4.20888 16.7756 3.95866 16.1716 3.95866 15.5417V4.45833C3.95866 3.82844 4.20888 3.22435 4.65428 2.77895C5.09968 2.33356 5.70377 2.08333 6.33366 2.08333H14.2503C14.8802 2.08333 15.4843 2.33356 15.9297 2.77895C16.3751 3.22435 16.6253 3.82844 16.6253 4.45833V15.5417ZM10.292 10C10.9219 10 11.526 9.74978 11.9714 9.30438C12.4168 8.85898 12.667 8.25489 12.667 7.625C12.667 6.99511 12.4168 6.39102 11.9714 5.94562C11.526 5.50022 10.9219 5.25 10.292 5.25C9.6621 5.25 9.05801 5.50022 8.61261 5.94562C8.16721 6.39102 7.91699 6.99511 7.91699 7.625C7.91699 8.25489 8.16721 8.85898 8.61261 9.30438C9.05801 9.74978 9.6621 10 10.292 10ZM14.2503 14.75C14.2503 14.96 14.1669 15.1613 14.0185 15.3098C13.87 15.4583 13.6686 15.5417 13.4587 15.5417C13.2487 15.5417 13.0473 15.4583 12.8989 15.3098C12.7504 15.1613 12.667 14.96 12.667 14.75C12.667 14.1201 12.4168 13.516 11.9714 13.0706C11.526 12.6252 10.9219 12.375 10.292 12.375C9.6621 12.375 9.05801 12.6252 8.61261 13.0706C8.16721 13.516 7.91699 14.1201 7.91699 14.75C7.91699 14.96 7.83358 15.1613 7.68512 15.3098C7.53665 15.4583 7.33529 15.5417 7.12533 15.5417C6.91536 15.5417 6.714 15.4583 6.56553 15.3098C6.41707 15.1613 6.33366 14.96 6.33366 14.75C6.5007 9.51867 14.0849 9.52025 14.2503 14.75Z" fill="white"/>
</g>
<defs>
<clipPath id="clip0_1825_24654">
<rect width="19" height="19" fill="white" transform="translate(0 0.5)"/>
</clipPath>
</defs>
</svg>
