<svg width="17" height="17" viewBox="0 0 17 17" fill="none" xmlns="http://www.w3.org/2000/svg">
<g clip-path="url(#clip0_1825_24666)">
<path d="M8.50048 0C6.95707 3.4977e-05 5.44844 0.458444 4.16592 1.31709C2.88341 2.17573 1.88479 3.39592 1.29673 4.82291C0.708663 6.2499 0.557644 7.81939 0.862825 9.33232C1.168 10.8453 1.91564 12.2335 3.01089 13.3209L5.80385 15.9C6.52174 16.6027 7.48559 16.9974 8.49016 17C9.49473 17.0027 10.4607 16.6131 11.1822 15.9141L14.0099 13.3011C15.0995 12.2114 15.8416 10.8231 16.1422 9.31168C16.4428 7.80028 16.2885 6.23367 15.6988 4.80996C15.1091 3.38625 14.1105 2.16937 12.8292 1.31321C11.5479 0.457049 10.0415 4.89168e-05 8.50048 0V0ZM13.0281 12.2804L10.2061 14.8878C9.74213 15.3249 9.12802 15.5673 8.4905 15.565C7.85298 15.5626 7.24069 15.3156 6.77994 14.875L3.99264 12.2995C3.25134 11.5582 2.7043 10.6455 2.39998 9.64226C2.09565 8.63903 2.04345 7.57623 2.24797 6.54801C2.4525 5.51978 2.90746 4.55786 3.57254 3.74746C4.23762 2.93706 5.0923 2.30319 6.06086 1.90199C7.02943 1.5008 8.08199 1.34466 9.12532 1.44742C10.1686 1.55017 11.1705 1.90865 12.0422 2.49109C12.9139 3.07353 13.6285 3.86195 14.1227 4.78653C14.6169 5.71111 14.8755 6.7433 14.8755 7.79167C14.8786 8.62469 14.717 9.45011 14.3999 10.2205C14.0829 10.9908 13.6167 11.6909 13.0281 12.2804ZM11.8367 5.42796L9.71173 3.95392C9.35571 3.70791 8.93322 3.57614 8.50048 3.57614C8.06773 3.57614 7.64525 3.70791 7.28923 3.95392L5.16423 5.42796C4.88225 5.62358 4.65184 5.88458 4.49271 6.18865C4.33358 6.49272 4.25047 6.83081 4.25048 7.174V9.5625C4.25048 10.0322 4.43705 10.4826 4.76914 10.8147C5.10124 11.1468 5.55166 11.3333 6.02131 11.3333H10.9796C11.4493 11.3333 11.8997 11.1468 12.2318 10.8147C12.5639 10.4826 12.7505 10.0322 12.7505 9.5625V7.174C12.7505 6.83081 12.6674 6.49272 12.5082 6.18865C12.3491 5.88458 12.1187 5.62358 11.8367 5.42796ZM11.3338 9.5625C11.3338 9.65643 11.2965 9.74652 11.2301 9.81293C11.1637 9.87935 11.0736 9.91667 10.9796 9.91667H9.91714V8.5C9.91714 8.31214 9.84252 8.13197 9.70968 7.99913C9.57684 7.8663 9.39667 7.79167 9.20881 7.79167H7.79214C7.60428 7.79167 7.42412 7.8663 7.29128 7.99913C7.15844 8.13197 7.08381 8.31214 7.08381 8.5V9.91667H6.02131C5.92738 9.91667 5.8373 9.87935 5.77088 9.81293C5.70446 9.74652 5.66714 9.65643 5.66714 9.5625V7.174C5.6671 7.05956 5.69479 6.94682 5.74783 6.84542C5.80088 6.74402 5.8777 6.65698 5.97173 6.59175L8.09673 5.11771C8.21552 5.03602 8.35631 4.99229 8.50048 4.99229C8.64465 4.99229 8.78543 5.03602 8.90423 5.11771L11.0292 6.59175C11.1233 6.65698 11.2001 6.74402 11.2531 6.84542C11.3062 6.94682 11.3339 7.05956 11.3338 7.174V9.5625Z" fill="white"/>
</g>
<defs>
<clipPath id="clip0_1825_24666">
<rect width="17" height="17" fill="white"/>
</clipPath>
</defs>
</svg>
