<svg width="18" height="19" viewBox="0 0 18 19" fill="none" xmlns="http://www.w3.org/2000/svg">
<g clip-path="url(#clip0_1825_24663)">
<path d="M5.25 11C5.25 11.1989 5.17098 11.3897 5.03033 11.5303C4.88968 11.671 4.69891 11.75 4.5 11.75H3.75C3.55109 11.75 3.36032 11.671 3.21967 11.5303C3.07902 11.3897 3 11.1989 3 11C3 10.8011 3.07902 10.6103 3.21967 10.4697C3.36032 10.329 3.55109 10.25 3.75 10.25H4.5C4.69891 10.25 4.88968 10.329 5.03033 10.4697C5.17098 10.6103 5.25 10.8011 5.25 11ZM8.25 10.25H7.5C7.30109 10.25 7.11032 10.329 6.96967 10.4697C6.82902 10.6103 6.75 10.8011 6.75 11C6.75 11.1989 6.82902 11.3897 6.96967 11.5303C7.11032 11.671 7.30109 11.75 7.5 11.75H8.25C8.44891 11.75 8.63968 11.671 8.78033 11.5303C8.92098 11.3897 9 11.1989 9 11C9 10.8011 8.92098 10.6103 8.78033 10.4697C8.63968 10.329 8.44891 10.25 8.25 10.25ZM4.5 13.25H3.75C3.55109 13.25 3.36032 13.329 3.21967 13.4697C3.07902 13.6103 3 13.8011 3 14C3 14.1989 3.07902 14.3897 3.21967 14.5303C3.36032 14.671 3.55109 14.75 3.75 14.75H4.5C4.69891 14.75 4.88968 14.671 5.03033 14.5303C5.17098 14.3897 5.25 14.1989 5.25 14C5.25 13.8011 5.17098 13.6103 5.03033 13.4697C4.88968 13.329 4.69891 13.25 4.5 13.25ZM8.25 13.25H7.5C7.30109 13.25 7.11032 13.329 6.96967 13.4697C6.82902 13.6103 6.75 13.8011 6.75 14C6.75 14.1989 6.82902 14.3897 6.96967 14.5303C7.11032 14.671 7.30109 14.75 7.5 14.75H8.25C8.44891 14.75 8.63968 14.671 8.78033 14.5303C8.92098 14.3897 9 14.1989 9 14C9 13.8011 8.92098 13.6103 8.78033 13.4697C8.63968 13.329 8.44891 13.25 8.25 13.25ZM4.5 4.25H3.75C3.55109 4.25 3.36032 4.32902 3.21967 4.46967C3.07902 4.61032 3 4.80109 3 5C3 5.19891 3.07902 5.38968 3.21967 5.53033C3.36032 5.67098 3.55109 5.75 3.75 5.75H4.5C4.69891 5.75 4.88968 5.67098 5.03033 5.53033C5.17098 5.38968 5.25 5.19891 5.25 5C5.25 4.80109 5.17098 4.61032 5.03033 4.46967C4.88968 4.32902 4.69891 4.25 4.5 4.25ZM8.25 4.25H7.5C7.30109 4.25 7.11032 4.32902 6.96967 4.46967C6.82902 4.61032 6.75 4.80109 6.75 5C6.75 5.19891 6.82902 5.38968 6.96967 5.53033C7.11032 5.67098 7.30109 5.75 7.5 5.75H8.25C8.44891 5.75 8.63968 5.67098 8.78033 5.53033C8.92098 5.38968 9 5.19891 9 5C9 4.80109 8.92098 4.61032 8.78033 4.46967C8.63968 4.32902 8.44891 4.25 8.25 4.25ZM4.5 7.25H3.75C3.55109 7.25 3.36032 7.32902 3.21967 7.46967C3.07902 7.61032 3 7.80109 3 8C3 8.19891 3.07902 8.38968 3.21967 8.53033C3.36032 8.67098 3.55109 8.75 3.75 8.75H4.5C4.69891 8.75 4.88968 8.67098 5.03033 8.53033C5.17098 8.38968 5.25 8.19891 5.25 8C5.25 7.80109 5.17098 7.61032 5.03033 7.46967C4.88968 7.32902 4.69891 7.25 4.5 7.25ZM8.25 7.25H7.5C7.30109 7.25 7.11032 7.32902 6.96967 7.46967C6.82902 7.61032 6.75 7.80109 6.75 8C6.75 8.19891 6.82902 8.38968 6.96967 8.53033C7.11032 8.67098 7.30109 8.75 7.5 8.75H8.25C8.44891 8.75 8.63968 8.67098 8.78033 8.53033C8.92098 8.38968 9 8.19891 9 8C9 7.80109 8.92098 7.61032 8.78033 7.46967C8.63968 7.32902 8.44891 7.25 8.25 7.25ZM18 8V14.75C17.9988 15.7442 17.6033 16.6973 16.9003 17.4003C16.1973 18.1033 15.2442 18.4988 14.25 18.5H3.75C2.7558 18.4988 1.80267 18.1033 1.09966 17.4003C0.396661 16.6973 0.00119089 15.7442 0 14.75L0 4.25C0.00119089 3.2558 0.396661 2.30267 1.09966 1.59966C1.80267 0.896661 2.7558 0.501191 3.75 0.5L8.25 0.5C9.2442 0.501191 10.1973 0.896661 10.9003 1.59966C11.6033 2.30267 11.9988 3.2558 12 4.25H14.25C15.2442 4.25119 16.1973 4.64666 16.9003 5.34966C17.6033 6.05267 17.9988 7.0058 18 8V8ZM3.75 17H10.5V4.25C10.5 3.65326 10.2629 3.08097 9.84099 2.65901C9.41903 2.23705 8.84674 2 8.25 2H3.75C3.15326 2 2.58097 2.23705 2.15901 2.65901C1.73705 3.08097 1.5 3.65326 1.5 4.25V14.75C1.5 15.3467 1.73705 15.919 2.15901 16.341C2.58097 16.7629 3.15326 17 3.75 17ZM16.5 8C16.5 7.40326 16.2629 6.83097 15.841 6.40901C15.419 5.98705 14.8467 5.75 14.25 5.75H12V17H14.25C14.8467 17 15.419 16.7629 15.841 16.341C16.2629 15.919 16.5 15.3467 16.5 14.75V8ZM14.25 10.25C14.1017 10.25 13.9567 10.294 13.8333 10.3764C13.71 10.4588 13.6139 10.5759 13.5571 10.713C13.5003 10.85 13.4855 11.0008 13.5144 11.1463C13.5433 11.2918 13.6148 11.4254 13.7197 11.5303C13.8246 11.6352 13.9582 11.7067 14.1037 11.7356C14.2492 11.7645 14.4 11.7497 14.537 11.6929C14.6741 11.6361 14.7912 11.54 14.8736 11.4167C14.956 11.2933 15 11.1483 15 11C15 10.8011 14.921 10.6103 14.7803 10.4697C14.6397 10.329 14.4489 10.25 14.25 10.25ZM14.25 13.25C14.1017 13.25 13.9567 13.294 13.8333 13.3764C13.71 13.4588 13.6139 13.5759 13.5571 13.713C13.5003 13.85 13.4855 14.0008 13.5144 14.1463C13.5433 14.2918 13.6148 14.4254 13.7197 14.5303C13.8246 14.6352 13.9582 14.7067 14.1037 14.7356C14.2492 14.7645 14.4 14.7497 14.537 14.6929C14.6741 14.6361 14.7912 14.54 14.8736 14.4167C14.956 14.2933 15 14.1483 15 14C15 13.8011 14.921 13.6103 14.7803 13.4697C14.6397 13.329 14.4489 13.25 14.25 13.25ZM14.25 7.25C14.1017 7.25 13.9567 7.29399 13.8333 7.3764C13.71 7.45881 13.6139 7.57594 13.5571 7.71299C13.5003 7.85003 13.4855 8.00083 13.5144 8.14632C13.5433 8.2918 13.6148 8.42544 13.7197 8.53033C13.8246 8.63522 13.9582 8.70665 14.1037 8.73559C14.2492 8.76453 14.4 8.74968 14.537 8.69291C14.6741 8.63614 14.7912 8.54001 14.8736 8.41668C14.956 8.29334 15 8.14834 15 8C15 7.80109 14.921 7.61032 14.7803 7.46967C14.6397 7.32902 14.4489 7.25 14.25 7.25Z" fill="white"/>
</g>
<defs>
<clipPath id="clip0_1825_24663">
<rect width="18" height="18" fill="white" transform="translate(0 0.5)"/>
</clipPath>
</defs>
</svg>
