<svg width="17" height="16" viewBox="0 0 17 16" fill="none" xmlns="http://www.w3.org/2000/svg">
<g clip-path="url(#clip0_1811_25074)">
<path d="M15.5535 6.11396L12.9675 3.52796C12.8418 3.40652 12.6734 3.33933 12.4986 3.34085C12.3238 3.34236 12.1565 3.41248 12.0329 3.53608C11.9093 3.65969 11.8392 3.8269 11.8377 4.00169C11.8362 4.17649 11.9034 4.34489 12.0248 4.47063L14.6108 7.05663C14.6877 7.13498 14.7548 7.22227 14.8108 7.31663C14.8008 7.31663 14.7928 7.3113 14.7828 7.3113L4.32682 7.33263C4.15001 7.33263 3.98044 7.40287 3.85542 7.52789C3.73039 7.65291 3.66016 7.82248 3.66016 7.99929C3.66016 8.17611 3.73039 8.34567 3.85542 8.4707C3.98044 8.59572 4.15001 8.66596 4.32682 8.66596L14.7788 8.64463C14.7975 8.64463 14.8128 8.63529 14.8308 8.63396C14.7717 8.74673 14.6967 8.85045 14.6082 8.94196L12.0222 11.528C11.9585 11.5895 11.9077 11.663 11.8728 11.7444C11.8378 11.8257 11.8194 11.9132 11.8187 12.0017C11.8179 12.0902 11.8348 12.178 11.8683 12.2599C11.9018 12.3419 11.9513 12.4163 12.0139 12.4789C12.0765 12.5415 12.1509 12.591 12.2329 12.6245C12.3148 12.658 12.4026 12.6749 12.4911 12.6741C12.5796 12.6734 12.6671 12.655 12.7484 12.62C12.8298 12.5851 12.9033 12.5343 12.9648 12.4706L15.5508 9.88463C16.0507 9.38455 16.3316 8.7064 16.3316 7.99929C16.3316 7.29219 16.0507 6.61404 15.5508 6.11396H15.5535Z" fill="white"/>
<path d="M5.00065 14.6667H3.66732C3.13688 14.6667 2.62818 14.456 2.2531 14.0809C1.87803 13.7058 1.66732 13.1971 1.66732 12.6667V3.33333C1.66732 2.8029 1.87803 2.29419 2.2531 1.91912C2.62818 1.54405 3.13688 1.33333 3.66732 1.33333H5.00065C5.17746 1.33333 5.34703 1.2631 5.47206 1.13807C5.59708 1.01305 5.66732 0.843478 5.66732 0.666667C5.66732 0.489856 5.59708 0.320286 5.47206 0.195262C5.34703 0.0702379 5.17746 0 5.00065 0L3.66732 0C2.78359 0.00105857 1.93636 0.352588 1.31146 0.97748C0.686572 1.60237 0.335043 2.4496 0.333984 3.33333L0.333984 12.6667C0.335043 13.5504 0.686572 14.3976 1.31146 15.0225C1.93636 15.6474 2.78359 15.9989 3.66732 16H5.00065C5.17746 16 5.34703 15.9298 5.47206 15.8047C5.59708 15.6797 5.66732 15.5101 5.66732 15.3333C5.66732 15.1565 5.59708 14.987 5.47206 14.8619C5.34703 14.7369 5.17746 14.6667 5.00065 14.6667Z" fill="white"/>
</g>
<defs>
<clipPath id="clip0_1811_25074">
<rect width="16" height="16" fill="white" transform="translate(0.333984)"/>
</clipPath>
</defs>
</svg>
