<svg width="20" height="20" viewBox="0 0 20 20" fill="none" xmlns="http://www.w3.org/2000/svg">
<path d="M4.16666 10.9168C4.16735 10.7519 4.21689 10.591 4.30903 10.4544C4.40116 10.3177 4.53175 10.2115 4.68428 10.149C4.83681 10.0866 5.00442 10.0708 5.16593 10.1036C5.32744 10.1364 5.4756 10.2164 5.59166 10.3334L9.40832 14.1668C9.48579 14.2449 9.57796 14.3069 9.67951 14.3492C9.78106 14.3915 9.88998 14.4133 9.99999 14.4133C10.11 14.4133 10.2189 14.3915 10.3205 14.3492C10.422 14.3069 10.5142 14.2449 10.5917 14.1668L14.4083 10.3334C14.4858 10.2553 14.578 10.1933 14.6795 10.151C14.7811 10.1087 14.89 10.0869 15 10.0869C15.11 10.0869 15.2189 10.1087 15.3205 10.151C15.422 10.1933 15.5142 10.2553 15.5917 10.3334C15.7469 10.4896 15.834 10.7008 15.834 10.9209C15.834 11.1411 15.7469 11.3523 15.5917 11.5084L11.7667 15.3334C11.2979 15.8016 10.6625 16.0646 9.99999 16.0646C9.33749 16.0646 8.70207 15.8016 8.23332 15.3334L4.40832 11.5084C4.33109 11.4306 4.26998 11.3382 4.22851 11.2367C4.18704 11.1351 4.16602 11.0264 4.16666 10.9168Z" fill="#E5E5E5"/>
<path d="M4.16666 5.08375C4.16735 4.91893 4.21689 4.75803 4.30903 4.62138C4.40116 4.48472 4.53175 4.37846 4.68428 4.31602C4.83681 4.25358 5.00442 4.23778 5.16593 4.2706C5.32744 4.30342 5.4756 4.38339 5.59166 4.50041L9.99999 8.90875L14.4083 4.50041C14.4858 4.42231 14.578 4.36031 14.6795 4.318C14.7811 4.2757 14.89 4.25391 15 4.25391C15.11 4.25391 15.2189 4.2757 15.3205 4.318C15.422 4.36031 15.5142 4.42231 15.5917 4.50041C15.7469 4.65655 15.834 4.86776 15.834 5.08791C15.834 5.30807 15.7469 5.51928 15.5917 5.67541L10.5917 10.6754C10.5142 10.7535 10.422 10.8155 10.3205 10.8578C10.2189 10.9001 10.11 10.9219 9.99999 10.9219C9.88998 10.9219 9.78106 10.9001 9.67951 10.8578C9.57796 10.8155 9.48579 10.7535 9.40832 10.6754L4.40832 5.67541C4.33109 5.59755 4.26998 5.5052 4.22851 5.40367C4.18704 5.30214 4.16602 5.19342 4.16666 5.08375Z" fill="#E5E5E5"/>
</svg>
