<svg width="13" height="13" viewBox="0 0 13 13" fill="none" xmlns="http://www.w3.org/2000/svg">
<g clip-path="url(#clip0_236_14759)">
<path d="M10.2913 4.563V3.79167C10.2913 2.78605 9.89186 1.82163 9.18079 1.11055C8.46971 0.399478 7.50529 0 6.49967 0C5.49406 0 4.52964 0.399478 3.81856 1.11055C3.10749 1.82163 2.70801 2.78605 2.70801 3.79167V4.563C2.22558 4.77355 1.81496 5.12012 1.52636 5.56032C1.23776 6.00053 1.0837 6.51529 1.08301 7.04167V10.2917C1.08387 11.0097 1.36949 11.6981 1.87721 12.2058C2.38493 12.7135 3.07331 12.9991 3.79134 13H9.20801C9.92604 12.9991 10.6144 12.7135 11.1221 12.2058C11.6299 11.6981 11.9155 11.0097 11.9163 10.2917V7.04167C11.9156 6.51529 11.7616 6.00053 11.473 5.56032C11.1844 5.12012 10.7738 4.77355 10.2913 4.563ZM3.79134 3.79167C3.79134 3.07337 4.07668 2.3845 4.58459 1.87659C5.0925 1.36867 5.78138 1.08333 6.49967 1.08333C7.21797 1.08333 7.90684 1.36867 8.41475 1.87659C8.92267 2.3845 9.20801 3.07337 9.20801 3.79167V4.33333H3.79134V3.79167ZM10.833 10.2917C10.833 10.7226 10.6618 11.136 10.3571 11.4407C10.0523 11.7455 9.63898 11.9167 9.20801 11.9167H3.79134C3.36036 11.9167 2.94704 11.7455 2.64229 11.4407C2.33755 11.136 2.16634 10.7226 2.16634 10.2917V7.04167C2.16634 6.61069 2.33755 6.19736 2.64229 5.89262C2.94704 5.58787 3.36036 5.41667 3.79134 5.41667H9.20801C9.63898 5.41667 10.0523 5.58787 10.3571 5.89262C10.6618 6.19736 10.833 6.61069 10.833 7.04167V10.2917Z" fill="#919294"/>
<path d="M6.49968 7.58325C6.35602 7.58325 6.21824 7.64032 6.11666 7.7419C6.01508 7.84348 5.95801 7.98126 5.95801 8.12492V9.20825C5.95801 9.35191 6.01508 9.48968 6.11666 9.59127C6.21824 9.69285 6.35602 9.74992 6.49968 9.74992C6.64334 9.74992 6.78111 9.69285 6.8827 9.59127C6.98428 9.48968 7.04135 9.35191 7.04135 9.20825V8.12492C7.04135 7.98126 6.98428 7.84348 6.8827 7.7419C6.78111 7.64032 6.64334 7.58325 6.49968 7.58325Z" fill="#919294"/>
</g>
<defs>
<clipPath id="clip0_236_14759">
<rect width="13" height="13" fill="white"/>
</clipPath>
</defs>
</svg>
