<svg width="13" height="14" viewBox="0 0 13 14" fill="none" xmlns="http://www.w3.org/2000/svg">
<g clip-path="url(#clip0_236_14763)">
<path d="M6.5 7C7.14279 7 7.77114 6.79473 8.3056 6.41014C8.84006 6.02556 9.25662 5.47893 9.50261 4.83939C9.74859 4.19985 9.81295 3.49612 9.68755 2.81719C9.56215 2.13825 9.25262 1.51461 8.7981 1.02513C8.34358 0.535644 7.76448 0.202301 7.13404 0.0672531C6.50361 -0.0677952 5.85014 0.0015165 5.25628 0.266423C4.66242 0.53133 4.15484 0.979934 3.79772 1.55551C3.44061 2.13108 3.25 2.80777 3.25 3.5C3.25086 4.42797 3.59355 5.31768 4.20285 5.97385C4.81216 6.63003 5.63831 6.99907 6.5 7ZM6.5 1.16667C6.92853 1.16667 7.34743 1.30352 7.70374 1.55991C8.06004 1.8163 8.33775 2.18071 8.50174 2.60707C8.66573 3.03343 8.70864 3.50259 8.62504 3.95521C8.54143 4.40783 8.33508 4.8236 8.03206 5.14992C7.72905 5.47624 7.34299 5.69847 6.9227 5.7885C6.5024 5.87853 6.06676 5.83232 5.67085 5.65572C5.27495 5.47912 4.93656 5.18005 4.69848 4.79633C4.46041 4.41262 4.33333 3.96149 4.33333 3.5C4.33333 2.88116 4.56161 2.28767 4.96794 1.85009C5.37426 1.4125 5.92536 1.16667 6.5 1.16667Z" fill="#919294"/>
<path d="M6.5 8.16699C5.20751 8.16854 3.96837 8.72216 3.05444 9.70639C2.14051 10.6906 1.62643 12.0251 1.625 13.417C1.625 13.5717 1.68207 13.7201 1.78365 13.8295C1.88523 13.9389 2.02301 14.0003 2.16667 14.0003C2.31033 14.0003 2.4481 13.9389 2.54968 13.8295C2.65126 13.7201 2.70833 13.5717 2.70833 13.417C2.70833 12.334 3.10781 11.2954 3.81889 10.5296C4.52996 9.76387 5.49439 9.33366 6.5 9.33366C7.50561 9.33366 8.47004 9.76387 9.18111 10.5296C9.89219 11.2954 10.2917 12.334 10.2917 13.417C10.2917 13.5717 10.3487 13.7201 10.4503 13.8295C10.5519 13.9389 10.6897 14.0003 10.8333 14.0003C10.977 14.0003 11.1148 13.9389 11.2164 13.8295C11.3179 13.7201 11.375 13.5717 11.375 13.417C11.3736 12.0251 10.8595 10.6906 9.94556 9.70639C9.03163 8.72216 7.79249 8.16854 6.5 8.16699V8.16699Z" fill="#919294"/>
</g>
<defs>
<clipPath id="clip0_236_14763">
<rect width="13" height="14" fill="white"/>
</clipPath>
</defs>
</svg>
