<svg width="17" height="17" viewBox="0 0 17 17" fill="none" xmlns="http://www.w3.org/2000/svg">
<path d="M16.7917 15.7921L12.5637 11.564C13.7158 10.1549 14.2823 8.35675 14.146 6.54163C14.0096 4.7265 13.1808 3.03323 11.8309 1.81206C10.4811 0.590883 8.71357 -0.064763 6.8939 -0.0192655C5.07423 0.0262321 3.34165 0.769392 2.05454 2.0565C0.767439 3.3436 0.024279 5.07618 -0.0212186 6.89585C-0.0667161 8.71552 0.58893 10.4831 1.8101 11.8329C3.03128 13.1827 4.72455 14.0115 6.53968 14.1479C8.3548 14.2843 10.1529 13.7178 11.5621 12.5656L15.7901 16.7936C15.9237 16.9227 16.1026 16.9941 16.2884 16.9925C16.4741 16.9908 16.6517 16.9163 16.7831 16.785C16.9144 16.6537 16.9889 16.476 16.9905 16.2903C16.9921 16.1046 16.9207 15.9257 16.7917 15.7921ZM7.08257 12.7512C5.96181 12.7512 4.86622 12.4188 3.93434 11.7962C3.00246 11.1735 2.27615 10.2885 1.84725 9.25306C1.41835 8.21761 1.30614 7.07824 1.52479 5.97901C1.74343 4.87978 2.28313 3.87008 3.07563 3.07758C3.86813 2.28509 4.87783 1.74539 5.97706 1.52674C7.07628 1.30809 8.21566 1.42031 9.25111 1.8492C10.2866 2.2781 11.1716 3.00441 11.7942 3.93629C12.4169 4.86817 12.7492 5.96376 12.7492 7.08452C12.7476 8.5869 12.15 10.0273 11.0876 11.0896C10.0253 12.1519 8.58494 12.7495 7.08257 12.7512Z" fill="#919294"/>
</svg>
