<svg width="25" height="24" viewBox="0 0 25 24" fill="none" xmlns="http://www.w3.org/2000/svg">
<path d="M9.5 22H15.5C20.5 22 22.5 20 22.5 15V9C22.5 4 20.5 2 15.5 2H9.5C4.5 2 2.5 4 2.5 9V15C2.5 20 4.5 22 9.5 22Z" stroke="white" stroke-width="1.5" stroke-linecap="round" stroke-linejoin="round"/>
<path d="M18.5 7.75V14.5C18.5 13.4 17.6 12.5 16.5 12.5H8.5C7.4 12.5 6.5 13.4 6.5 14.5V7.75C6.5 6.65 7.4 5.75 8.5 5.75H16.5C17.6 5.75 18.5 6.65 18.5 7.75Z" stroke="white" stroke-width="1.5" stroke-linecap="round" stroke-linejoin="round"/>
<path d="M19.5 15.75H18.5" stroke="white" stroke-width="1.5" stroke-linecap="round" stroke-linejoin="round"/>
<path d="M6.5 15.75H5.5" stroke="white" stroke-width="1.5" stroke-linecap="round" stroke-linejoin="round"/>
<path d="M18.5 14V11C18.5 9.9 17.6 9 16.5 9H8.5C7.4 9 6.5 9.9 6.5 11V14" stroke="white" stroke-width="1.5" stroke-linecap="round" stroke-linejoin="round"/>
<path d="M18.5 14.5V15.75H15C15 17.13 13.88 18.25 12.5 18.25C11.12 18.25 10 17.13 10 15.75H6.5V14.5C6.5 13.4 7.4 12.5 8.5 12.5H16.5C17.6 12.5 18.5 13.4 18.5 14.5Z" stroke="white" stroke-width="1.5" stroke-linecap="round" stroke-linejoin="round"/>
</svg>
