<svg width="17" height="17" viewBox="0 0 17 17" fill="none" xmlns="http://www.w3.org/2000/svg">
<g clip-path="url(#clip0_1494_20459)">
<path d="M13.4583 0H3.54167C2.6027 0.00112473 1.70252 0.374625 1.03857 1.03857C0.374625 1.70252 0.00112473 2.6027 0 3.54167L0 13.4583C0.00112473 14.3973 0.374625 15.2975 1.03857 15.9614C1.70252 16.6254 2.6027 16.9989 3.54167 17H13.4583C14.3973 16.9989 15.2975 16.6254 15.9614 15.9614C16.6254 15.2975 16.9989 14.3973 17 13.4583V3.54167C16.9989 2.6027 16.6254 1.70252 15.9614 1.03857C15.2975 0.374625 14.3973 0.00112473 13.4583 0V0ZM4.95833 15.5833V14.875C4.95833 13.9357 5.33147 13.0349 5.99566 12.3707C6.65985 11.7065 7.56069 11.3333 8.5 11.3333C9.43931 11.3333 10.3401 11.7065 11.0043 12.3707C11.6685 13.0349 12.0417 13.9357 12.0417 14.875V15.5833H4.95833ZM15.5833 13.4583C15.5833 14.0219 15.3595 14.5624 14.9609 14.9609C14.5624 15.3595 14.0219 15.5833 13.4583 15.5833V14.875C13.4583 13.56 12.9359 12.2988 12.0061 11.3689C11.0762 10.4391 9.81503 9.91667 8.5 9.91667C7.18497 9.91667 5.9238 10.4391 4.99393 11.3689C4.06406 12.2988 3.54167 13.56 3.54167 14.875V15.5833C2.97808 15.5833 2.43758 15.3595 2.03906 14.9609C1.64055 14.5624 1.41667 14.0219 1.41667 13.4583V3.54167C1.41667 2.97808 1.64055 2.43758 2.03906 2.03906C2.43758 1.64055 2.97808 1.41667 3.54167 1.41667H13.4583C14.0219 1.41667 14.5624 1.64055 14.9609 2.03906C15.3595 2.43758 15.5833 2.97808 15.5833 3.54167V13.4583Z" fill="#49B2FF"/>
<path d="M8.50033 2.83398C7.93995 2.83398 7.39215 3.00016 6.92621 3.31149C6.46027 3.62282 6.09712 4.06532 5.88267 4.58305C5.66822 5.10077 5.61211 5.67046 5.72144 6.22007C5.83076 6.76969 6.10061 7.27454 6.49686 7.67079C6.89311 8.06704 7.39796 8.33688 7.94757 8.44621C8.49718 8.55553 9.06687 8.49942 9.5846 8.28498C10.1023 8.07053 10.5448 7.70737 10.8562 7.24143C11.1675 6.77549 11.3337 6.2277 11.3337 5.66732C11.3337 4.91587 11.0351 4.1952 10.5038 3.66385C9.97244 3.1325 9.25177 2.83398 8.50033 2.83398ZM8.50033 7.08398C8.22014 7.08398 7.94624 7.0009 7.71327 6.84523C7.4803 6.68957 7.29872 6.46831 7.1915 6.20945C7.08427 5.95059 7.05622 5.66575 7.11088 5.39094C7.16554 5.11613 7.30047 4.86371 7.49859 4.66558C7.69672 4.46746 7.94914 4.33253 8.22395 4.27787C8.49876 4.22321 8.7836 4.25126 9.04246 4.35849C9.30132 4.46571 9.52258 4.64729 9.67824 4.88026C9.83391 5.11323 9.91699 5.38713 9.91699 5.66732C9.91699 6.04304 9.76774 6.40338 9.50206 6.66905C9.23638 6.93473 8.87605 7.08398 8.50033 7.08398Z" fill="#49B2FF"/>
</g>
<defs>
<clipPath id="clip0_1494_20459">
<rect width="17" height="17" fill="white"/>
</clipPath>
</defs>
</svg>
