<svg width="17" height="17" viewBox="0 0 17 17" fill="none" xmlns="http://www.w3.org/2000/svg">
<path d="M9.20799 0.708488C9.20799 0.520626 9.28261 0.340459 9.41545 0.207621C9.54829 0.0747824 9.72846 0.000154623 9.91632 0.000154623C11.7943 0.002217 13.5948 0.749157 14.9227 2.07709C16.2506 3.40503 16.9976 5.2055 16.9996 7.08349C16.9996 7.27135 16.925 7.45152 16.7922 7.58436C16.6593 7.71719 16.4792 7.79182 16.2913 7.79182C16.1034 7.79182 15.9233 7.71719 15.7904 7.58436C15.6576 7.45152 15.583 7.27135 15.583 7.08349C15.5813 5.58111 14.9837 4.14075 13.9214 3.07841C12.859 2.01607 11.4187 1.41851 9.91632 1.41682C9.72846 1.41682 9.54829 1.34219 9.41545 1.20936C9.28261 1.07652 9.20799 0.89635 9.20799 0.708488ZM9.91632 4.25015C10.6678 4.25015 11.3884 4.54867 11.9198 5.08002C12.4511 5.61137 12.7496 6.33204 12.7496 7.08349C12.7496 7.27135 12.8243 7.45152 12.9571 7.58436C13.09 7.71719 13.2701 7.79182 13.458 7.79182C13.6458 7.79182 13.826 7.71719 13.9588 7.58436C14.0917 7.45152 14.1663 7.27135 14.1663 7.08349C14.1652 5.95666 13.7171 4.87631 12.9203 4.07953C12.1235 3.28274 11.0431 2.83461 9.91632 2.83349C9.72846 2.83349 9.54829 2.90812 9.41545 3.04095C9.28261 3.17379 9.20799 3.35396 9.20799 3.54182C9.20799 3.72968 9.28261 3.90985 9.41545 4.04269C9.54829 4.17553 9.72846 4.25015 9.91632 4.25015ZM16.3572 11.8569C16.7677 12.2686 16.9982 12.8262 16.9982 13.4075C16.9982 13.9888 16.7677 14.5464 16.3572 14.958L15.7126 15.7011C9.91136 21.2551 -4.20571 7.14157 1.26262 1.3219L2.0772 0.613571C2.48929 0.214551 3.0419 -0.00618561 3.61549 -0.000883197C4.18908 0.00441922 4.73752 0.235334 5.14216 0.641905C5.16412 0.663863 6.47666 2.36882 6.47666 2.36882C6.86612 2.77797 7.08292 3.32148 7.082 3.88636C7.08107 4.45123 6.8625 4.99403 6.4717 5.40191L5.65145 6.43324C6.10538 7.53619 6.77278 8.53858 7.61531 9.38281C8.45783 10.227 9.45887 10.8965 10.5609 11.3526L11.5986 10.5274C12.0065 10.1369 12.5492 9.91859 13.1139 9.9178C13.6786 9.91701 14.222 10.1338 14.631 10.5232C14.631 10.5232 16.3352 11.835 16.3572 11.8569ZM15.3825 12.8869C15.3825 12.8869 13.6875 11.5828 13.6655 11.5609C13.5196 11.4162 13.3224 11.335 13.1169 11.335C12.9114 11.335 12.7142 11.4162 12.5683 11.5609C12.5492 11.5807 11.1205 12.719 11.1205 12.719C11.0242 12.7956 10.9096 12.8459 10.788 12.8647C10.6664 12.8836 10.542 12.8705 10.427 12.8267C8.99935 12.2951 7.70259 11.4629 6.62458 10.3865C5.54657 9.31008 4.71248 8.01455 4.17883 6.58766C4.13151 6.4711 4.11608 6.34405 4.13413 6.21956C4.15218 6.09507 4.20306 5.97764 4.28153 5.87932C4.28153 5.87932 5.41982 4.44991 5.43895 4.43149C5.58364 4.28556 5.66482 4.08838 5.66482 3.88288C5.66482 3.67739 5.58364 3.48021 5.43895 3.33428C5.41699 3.31303 4.11295 1.61657 4.11295 1.61657C3.96484 1.48376 3.77154 1.41264 3.57267 1.41778C3.3738 1.42291 3.18443 1.50392 3.04337 1.6442L2.22879 2.35253C-1.76763 7.15786 10.466 18.7129 14.677 14.7335L15.3223 13.9897C15.4735 13.8497 15.5644 13.6563 15.5756 13.4505C15.5868 13.2447 15.5176 13.0426 15.3825 12.8869Z" fill="#49B2FF"/>
</svg>
