<svg width="25" height="25" viewBox="0 0 25 25" fill="none" xmlns="http://www.w3.org/2000/svg">
<g clip-path="url(#clip0_1568_22750)">
<path d="M18.7503 0H8.33366C7.3214 0.00133164 6.33147 0.29761 5.48492 0.852603C4.63837 1.4076 3.97189 2.19725 3.56699 3.125H2.08366C1.80739 3.125 1.54244 3.23475 1.34709 3.4301C1.15174 3.62545 1.04199 3.8904 1.04199 4.16667C1.04199 4.44293 1.15174 4.70789 1.34709 4.90324C1.54244 5.09859 1.80739 5.20833 2.08366 5.20833H3.12533V7.29167H2.08366C1.80739 7.29167 1.54244 7.40141 1.34709 7.59676C1.15174 7.79211 1.04199 8.05707 1.04199 8.33333C1.04199 8.6096 1.15174 8.87455 1.34709 9.0699C1.54244 9.26525 1.80739 9.375 2.08366 9.375H3.12533V11.4583H2.08366C1.80739 11.4583 1.54244 11.5681 1.34709 11.7634C1.15174 11.9588 1.04199 12.2237 1.04199 12.5C1.04199 12.7763 1.15174 13.0412 1.34709 13.2366C1.54244 13.4319 1.80739 13.5417 2.08366 13.5417H3.12533V15.625H2.08366C1.80739 15.625 1.54244 15.7347 1.34709 15.9301C1.15174 16.1254 1.04199 16.3904 1.04199 16.6667C1.04199 16.9429 1.15174 17.2079 1.34709 17.4032C1.54244 17.5986 1.80739 17.7083 2.08366 17.7083H3.12533V19.7917H2.08366C1.80739 19.7917 1.54244 19.9014 1.34709 20.0968C1.15174 20.2921 1.04199 20.5571 1.04199 20.8333C1.04199 21.1096 1.15174 21.3746 1.34709 21.5699C1.54244 21.7653 1.80739 21.875 2.08366 21.875H3.56699C3.97189 22.8027 4.63837 23.5924 5.48492 24.1474C6.33147 24.7024 7.3214 24.9987 8.33366 25H18.7503C20.1312 24.9983 21.455 24.4491 22.4313 23.4727C23.4077 22.4963 23.957 21.1725 23.9587 19.7917V5.20833C23.957 3.82751 23.4077 2.50371 22.4313 1.52731C21.455 0.550919 20.1312 0.00165402 18.7503 0V0ZM21.8753 19.7917C21.8753 20.6205 21.5461 21.4153 20.96 22.0014C20.374 22.5874 19.5791 22.9167 18.7503 22.9167H8.33366C7.50486 22.9167 6.71 22.5874 6.12395 22.0014C5.5379 21.4153 5.20866 20.6205 5.20866 19.7917V5.20833C5.20866 4.37953 5.5379 3.58468 6.12395 2.99862C6.71 2.41257 7.50486 2.08333 8.33366 2.08333H18.7503C19.5791 2.08333 20.374 2.41257 20.96 2.99862C21.5461 3.58468 21.8753 4.37953 21.8753 5.20833V19.7917ZM13.542 12.5C14.3708 12.5 15.1656 12.1708 15.7517 11.5847C16.3378 10.9987 16.667 10.2038 16.667 9.375C16.667 8.5462 16.3378 7.75134 15.7517 7.16529C15.1656 6.57924 14.3708 6.25 13.542 6.25C12.7132 6.25 11.9183 6.57924 11.3323 7.16529C10.7462 7.75134 10.417 8.5462 10.417 9.375C10.417 10.2038 10.7462 10.9987 11.3323 11.5847C11.9183 12.1708 12.7132 12.5 13.542 12.5ZM18.7503 18.75C18.7503 19.0263 18.6406 19.2912 18.4452 19.4866C18.2499 19.6819 17.9849 19.7917 17.7087 19.7917C17.4324 19.7917 17.1674 19.6819 16.9721 19.4866C16.7767 19.2912 16.667 19.0263 16.667 18.75C16.667 17.9212 16.3378 17.1263 15.7517 16.5403C15.1656 15.9542 14.3708 15.625 13.542 15.625C12.7132 15.625 11.9183 15.9542 11.3323 16.5403C10.7462 17.1263 10.417 17.9212 10.417 18.75C10.417 19.0263 10.3072 19.2912 10.1119 19.4866C9.91654 19.6819 9.65159 19.7917 9.37533 19.7917C9.09906 19.7917 8.83411 19.6819 8.63876 19.4866C8.44341 19.2912 8.33366 19.0263 8.33366 18.75C8.55345 11.8667 18.5326 11.8687 18.7503 18.75Z" fill="#374957"/>
</g>
<defs>
<clipPath id="clip0_1568_22750">
<rect width="25" height="25" fill="white"/>
</clipPath>
</defs>
</svg>
