<svg width="12" height="12" viewBox="0 0 12 12" fill="none" xmlns="http://www.w3.org/2000/svg">
<g clip-path="url(#clip0_1877_6930)">
<path d="M9.5 0H2.5C1.8372 0.000793929 1.20178 0.264441 0.73311 0.73311C0.264441 1.20178 0.000793929 1.8372 0 2.5L0 9.5C0.000793929 10.1628 0.264441 10.7982 0.73311 11.2669C1.20178 11.7356 1.8372 11.9992 2.5 12H9.5C10.1628 11.9992 10.7982 11.7356 11.2669 11.2669C11.7356 10.7982 11.9992 10.1628 12 9.5V2.5C11.9992 1.8372 11.7356 1.20178 11.2669 0.73311C10.7982 0.264441 10.1628 0.000793929 9.5 0V0ZM3.5 11V10.5C3.5 9.83696 3.76339 9.20107 4.23223 8.73223C4.70107 8.26339 5.33696 8 6 8C6.66304 8 7.29893 8.26339 7.76777 8.73223C8.23661 9.20107 8.5 9.83696 8.5 10.5V11H3.5ZM11 9.5C11 9.89782 10.842 10.2794 10.5607 10.5607C10.2794 10.842 9.89782 11 9.5 11V10.5C9.5 9.57174 9.13125 8.6815 8.47487 8.02513C7.8185 7.36875 6.92826 7 6 7C5.07174 7 4.1815 7.36875 3.52513 8.02513C2.86875 8.6815 2.5 9.57174 2.5 10.5V11C2.10218 11 1.72064 10.842 1.43934 10.5607C1.15804 10.2794 1 9.89782 1 9.5V2.5C1 2.10218 1.15804 1.72064 1.43934 1.43934C1.72064 1.15804 2.10218 1 2.5 1H9.5C9.89782 1 10.2794 1.15804 10.5607 1.43934C10.842 1.72064 11 2.10218 11 2.5V9.5Z" fill="#8280FF"/>
<path d="M6 2C5.60444 2 5.21776 2.1173 4.88886 2.33706C4.55996 2.55682 4.30362 2.86918 4.15224 3.23463C4.00087 3.60009 3.96126 4.00222 4.03843 4.39018C4.1156 4.77814 4.30608 5.13451 4.58579 5.41421C4.86549 5.69392 5.22186 5.8844 5.60982 5.96157C5.99778 6.03874 6.39992 5.99913 6.76537 5.84776C7.13082 5.69638 7.44318 5.44004 7.66294 5.11114C7.8827 4.78224 8 4.39556 8 4C8 3.46957 7.78929 2.96086 7.41421 2.58579C7.03914 2.21071 6.53043 2 6 2ZM6 5C5.80222 5 5.60888 4.94135 5.44443 4.83147C5.27998 4.72159 5.15181 4.56541 5.07612 4.38268C5.00043 4.19996 4.98063 3.99889 5.01922 3.80491C5.0578 3.61093 5.15304 3.43275 5.29289 3.29289C5.43275 3.15304 5.61093 3.0578 5.80491 3.01921C5.99889 2.98063 6.19996 3.00043 6.38268 3.07612C6.56541 3.15181 6.72159 3.27998 6.83147 3.44443C6.94135 3.60888 7 3.80222 7 4C7 4.26522 6.89464 4.51957 6.70711 4.70711C6.51957 4.89464 6.26522 5 6 5Z" fill="#8280FF"/>
</g>
<defs>
<clipPath id="clip0_1877_6930">
<rect width="12" height="12" fill="white"/>
</clipPath>
</defs>
</svg>
