<svg width="14" height="14" viewBox="0 0 14 14" fill="none" xmlns="http://www.w3.org/2000/svg">
<g clip-path="url(#clip0_1494_20461)">
<path d="M10.7338 4.30451C10.6283 4.27442 10.532 4.21841 10.4536 4.14159C10.3753 4.06477 10.3174 3.96958 10.2852 3.86468C10.1066 3.25921 9.80695 2.69627 9.40447 2.20994C9.00199 1.7236 8.50503 1.32398 7.94365 1.03526C7.38227 0.746533 6.76815 0.574707 6.13844 0.530179C5.50874 0.485651 4.87655 0.569345 4.28013 0.776197C3.6837 0.983049 3.13545 1.30876 2.66854 1.73362C2.20163 2.15847 1.82577 2.67364 1.56371 3.24795C1.30165 3.82227 1.15884 4.44378 1.14391 5.07487C1.12898 5.70597 1.24225 6.33354 1.47687 6.9196C1.53076 7.04293 1.54237 7.18063 1.50987 7.31124C1.47738 7.44186 1.40261 7.55806 1.2972 7.64177C0.832708 7.98651 0.47006 8.45042 0.247638 8.9844C0.0252162 9.51837 -0.0487044 10.1025 0.0336998 10.6751C0.162298 11.4491 0.564139 12.1514 1.16629 12.6544C1.76844 13.1575 2.53099 13.4279 3.31553 13.4168H6.41712C6.57183 13.4168 6.7202 13.3553 6.8296 13.2459C6.93899 13.1365 7.00045 12.9881 7.00045 12.8334C7.00045 12.6787 6.93899 12.5303 6.8296 12.421C6.7202 12.3116 6.57183 12.2501 6.41712 12.2501H3.31553C2.8117 12.2623 2.32015 12.0936 1.92998 11.7746C1.5398 11.4556 1.27683 11.0074 1.1887 10.5112C1.13281 10.1464 1.17811 9.77336 1.31964 9.43259C1.46118 9.09181 1.69352 8.79642 1.99137 8.5786C2.30422 8.34478 2.53053 8.01365 2.63475 7.63723C2.73896 7.26081 2.71517 6.86044 2.56712 6.49901C2.27437 5.72593 2.25932 4.87514 2.52453 4.09218C2.7364 3.47885 3.11579 2.93711 3.61973 2.52833C4.12367 2.11954 4.73202 1.86006 5.37587 1.77926C5.52521 1.76004 5.67562 1.7503 5.8262 1.7501C6.58048 1.74761 7.31528 1.98951 7.92057 2.43959C8.52586 2.88967 8.96908 3.52371 9.18387 4.24676C9.26771 4.52231 9.41877 4.77268 9.62345 4.97532C9.82813 5.17796 10.08 5.32652 10.3564 5.4076C11.0327 5.60764 11.6319 6.00952 12.0735 6.55946C12.5152 7.10939 12.7783 7.78113 12.8277 8.48473C12.877 9.18833 12.7103 9.89023 12.3497 10.4964C11.9892 11.1027 11.452 11.5843 10.8102 11.8768C10.7152 11.9254 10.6358 11.9998 10.581 12.0913C10.5263 12.1829 10.4983 12.2881 10.5005 12.3948C10.4993 12.4913 10.5224 12.5866 10.5677 12.6718C10.613 12.7571 10.6789 12.8296 10.7595 12.8827C10.8401 12.9359 10.9328 12.9679 11.029 12.9759C11.1252 12.9839 11.2219 12.9676 11.3101 12.9285C13.7216 11.7694 15.0318 8.72035 12.9901 5.77451C12.428 5.04122 11.6317 4.52246 10.7338 4.30451Z" fill="#49B2FF"/>
<path d="M10.9124 9.74578C11.0218 9.63638 11.0832 9.48804 11.0832 9.33336C11.0832 9.17868 11.0218 9.03033 10.9124 8.92094L9.98724 7.99577C9.65907 7.6677 9.21403 7.4834 8.74999 7.4834C8.28596 7.4834 7.84092 7.6677 7.51274 7.99577L6.58758 8.92094C6.48132 9.03096 6.42252 9.17831 6.42385 9.33126C6.42518 9.48421 6.48653 9.63051 6.59468 9.73867C6.70284 9.84682 6.84914 9.90817 7.00209 9.9095C7.15504 9.91083 7.30239 9.85203 7.41241 9.74578L8.16666 8.99152V13.4167C8.16666 13.5714 8.22812 13.7198 8.33751 13.8292C8.44691 13.9386 8.59528 14 8.74999 14C8.9047 14 9.05308 13.9386 9.16247 13.8292C9.27187 13.7198 9.33333 13.5714 9.33333 13.4167V8.99152L10.0876 9.74578C10.197 9.85513 10.3453 9.91657 10.5 9.91657C10.6547 9.91657 10.803 9.85513 10.9124 9.74578Z" fill="#49B2FF"/>
</g>
<defs>
<clipPath id="clip0_1494_20461">
<rect width="14" height="14" fill="white"/>
</clipPath>
</defs>
</svg>
