<svg width="27" height="27" viewBox="0 0 27 27" fill="none" xmlns="http://www.w3.org/2000/svg">
<g clip-path="url(#clip0_1568_22627)">
<path d="M13.4997 0C11.0484 5.55516e-05 8.65237 0.728117 6.61543 2.09184C4.5785 3.45557 2.99246 5.39353 2.05848 7.65992C1.12449 9.92631 0.884636 12.419 1.36933 14.8219C1.85403 17.2248 3.04145 19.4296 4.78098 21.1568L9.21685 25.2529C10.357 26.369 11.8878 26.9958 13.4833 27C15.0788 27.0042 16.6129 26.3854 17.759 25.2754L22.25 21.1253C23.9806 19.3946 25.1591 17.1896 25.6366 14.7891C26.114 12.3887 25.869 9.90053 24.9324 7.63935C23.9958 5.37816 22.4097 3.44548 20.3747 2.08569C18.3397 0.725901 15.9472 7.76914e-05 13.4997 0V0ZM20.6907 19.5041L16.2087 23.6453C15.4718 24.3396 14.4964 24.7246 13.4839 24.7208C12.4713 24.7171 11.4989 24.3248 10.7671 23.625L6.34023 19.5345C5.16286 18.3571 4.29403 16.9075 3.81069 15.3142C3.32736 13.7208 3.24444 12.0328 3.56928 10.3998C3.89412 8.76671 4.61669 7.23896 5.673 5.95185C6.7293 4.66474 8.08673 3.65801 9.62504 3.02081C11.1634 2.38362 12.8351 2.13564 14.4921 2.29884C16.1492 2.46204 17.7404 3.03138 19.1248 3.95643C20.5093 4.88148 21.6442 6.13369 22.4291 7.60214C23.2141 9.07058 23.6247 10.7099 23.6247 12.375C23.6297 13.698 23.373 15.009 22.8695 16.2325C22.3659 17.456 21.6255 18.5678 20.6907 19.5041ZM18.7985 8.62088L15.4235 6.27975C14.858 5.88903 14.187 5.67975 13.4997 5.67975C12.8124 5.67975 12.1414 5.88903 11.576 6.27975L8.20097 8.62088C7.75312 8.93157 7.38718 9.3461 7.13445 9.82904C6.88172 10.312 6.74971 10.8489 6.74972 11.394V15.1875C6.74972 15.9334 7.04604 16.6488 7.57349 17.1762C8.10093 17.7037 8.8163 18 9.56222 18H17.4372C18.1831 18 18.8985 17.7037 19.426 17.1762C19.9534 16.6488 20.2497 15.9334 20.2497 15.1875V11.394C20.2497 10.8489 20.1177 10.312 19.865 9.82904C19.6123 9.3461 19.2463 8.93157 18.7985 8.62088ZM17.9997 15.1875C17.9997 15.3367 17.9405 15.4798 17.835 15.5852C17.7295 15.6907 17.5864 15.75 17.4372 15.75H15.7497V13.5C15.7497 13.2016 15.6312 12.9155 15.4202 12.7045C15.2092 12.4935 14.9231 12.375 14.6247 12.375H12.3747C12.0764 12.375 11.7902 12.4935 11.5792 12.7045C11.3683 12.9155 11.2497 13.2016 11.2497 13.5V15.75H9.56222C9.41304 15.75 9.26997 15.6907 9.16448 15.5852C9.05899 15.4798 8.99972 15.3367 8.99972 15.1875V11.394C8.99966 11.2122 9.04363 11.0332 9.12788 10.8721C9.21213 10.7111 9.33414 10.5729 9.48347 10.4693L12.8585 8.12813C13.0472 7.99839 13.2707 7.92893 13.4997 7.92893C13.7287 7.92893 13.9523 7.99839 14.141 8.12813L17.516 10.4693C17.6653 10.5729 17.7873 10.7111 17.8716 10.8721C17.9558 11.0332 17.9998 11.2122 17.9997 11.394V15.1875Z" fill="#374957"/>
</g>
<defs>
<clipPath id="clip0_1568_22627">
<rect width="27" height="27" fill="white"/>
</clipPath>
</defs>
</svg>
