<svg width="11" height="11" viewBox="0 0 11 11" fill="none" xmlns="http://www.w3.org/2000/svg">
<path d="M9.62532 1.83333H8.20449C7.9852 0.767057 7.04724 0.001375 5.95864 0H5.04197C3.95338 0.001375 3.01541 0.767057 2.79614 1.83333H1.37532C1.12219 1.83333 0.916992 2.03852 0.916992 2.29165C0.916992 2.54478 1.12219 2.75 1.37532 2.75H1.83364V8.70833C1.83517 9.97335 2.8603 10.9985 4.12532 11H6.87532C8.14034 10.9985 9.16547 9.97335 9.16699 8.70833V2.75H9.62532C9.87845 2.75 10.0836 2.5448 10.0836 2.29167C10.0836 2.03854 9.87845 1.83333 9.62532 1.83333ZM5.04199 7.79167C5.04199 8.0448 4.83679 8.25 4.58367 8.25C4.33052 8.25 4.12532 8.0448 4.12532 7.79167V5.04167C4.12532 4.78855 4.33052 4.58335 4.58364 4.58335C4.83677 4.58335 5.04197 4.78855 5.04197 5.04167V7.79167H5.04199ZM6.87532 7.79167C6.87532 8.0448 6.67012 8.25 6.41699 8.25C6.16386 8.25 5.95867 8.0448 5.95867 7.79167V5.04167C5.95867 4.78855 6.16386 4.58335 6.41699 4.58335C6.67012 4.58335 6.87532 4.78855 6.87532 5.04167V7.79167ZM3.74537 1.83333C3.94032 1.28438 4.45946 0.917361 5.04199 0.916652H5.95867C6.54119 0.917361 7.06034 1.28438 7.25529 1.83333H3.74537Z" fill="#FF2B37"/>
</svg>
