<svg width="10" height="10" viewBox="0 0 10 10" fill="none" xmlns="http://www.w3.org/2000/svg">
<path d="M9.56257 4.00016C9.48443 3.92205 9.37847 3.87816 9.26799 3.87816C9.1575 3.87816 9.05154 3.92205 8.9734 4.00016L4.43507 8.55807C4.24162 8.75156 4.01195 8.90504 3.75918 9.00976C3.50641 9.11448 3.23549 9.16839 2.96188 9.16841C2.40932 9.16845 1.87936 8.94898 1.48861 8.55828C1.09786 8.16759 0.878316 7.63767 0.878277 7.0851C0.878238 6.53253 1.09771 6.00258 1.4884 5.61183L5.88382 1.19849C6.11886 0.967197 6.43577 0.838146 6.76552 0.83945C7.09528 0.840754 7.41116 0.972306 7.64436 1.20545C7.87756 1.4386 8.00919 1.75445 8.01057 2.0842C8.01195 2.41396 7.88298 2.7309 7.65174 2.96599L3.25632 7.37932C3.17705 7.45527 3.07151 7.49766 2.96174 7.49766C2.85196 7.49766 2.74642 7.45527 2.66715 7.37932C2.58904 7.30119 2.54516 7.19523 2.54516 7.08474C2.54516 6.97426 2.58904 6.8683 2.66715 6.79016L6.58049 2.85891C6.65639 2.78032 6.69838 2.67507 6.69743 2.56582C6.69649 2.45658 6.65267 2.35207 6.57541 2.27482C6.49816 2.19756 6.39365 2.15374 6.2844 2.15279C6.17516 2.15185 6.0699 2.19384 5.99132 2.26974L2.07799 6.20099C1.96189 6.31707 1.8698 6.45488 1.80697 6.60655C1.74414 6.75822 1.7118 6.92078 1.7118 7.08495C1.7118 7.24912 1.74414 7.41168 1.80697 7.56335C1.8698 7.71502 1.96189 7.85283 2.07799 7.96891C2.31616 8.19619 2.63273 8.323 2.96195 8.323C3.29116 8.323 3.60773 8.19619 3.8459 7.96891L8.2409 3.55516C8.6234 3.16279 8.83591 2.63551 8.8324 2.08756C8.82889 1.53961 8.60964 1.01511 8.22215 0.627668C7.83465 0.240228 7.31012 0.0210524 6.76217 0.0176191C6.21421 0.0141858 5.68697 0.226772 5.29465 0.609325L0.899237 5.02266C0.352228 5.56967 0.0449219 6.31157 0.0449219 7.08516C0.0449219 7.85875 0.352228 8.60065 0.899237 9.14766C1.44625 9.69467 2.18815 10.002 2.96174 10.002C3.73532 10.002 4.47723 9.69467 5.02424 9.14766L9.56257 4.59099C9.6015 4.55227 9.63239 4.50624 9.65347 4.45554C9.67455 4.40484 9.6854 4.35048 9.6854 4.29558C9.6854 4.24067 9.67455 4.18631 9.65347 4.13561C9.63239 4.08491 9.6015 4.03888 9.56257 4.00016Z" fill="#3569E7"/>
</svg>
