<svg width="54" height="54" viewBox="0 0 54 54" fill="none" xmlns="http://www.w3.org/2000/svg">
<path d="M27 0C21.6599 0 16.4397 1.58352 11.9996 4.55032C7.55949 7.51712 4.09883 11.7339 2.05526 16.6675C0.0116987 21.6012 -0.522991 27.03 0.51881 32.2674C1.56061 37.5049 4.13211 42.3159 7.90813 46.0919C11.6841 49.8679 16.4951 52.4394 21.7326 53.4812C26.9701 54.523 32.3989 53.9883 37.3325 51.9447C42.2661 49.9012 46.4829 46.4405 49.4497 42.0004C52.4165 37.5603 54 32.3401 54 27C53.9923 19.8415 51.1451 12.9785 46.0833 7.91667C41.0215 2.85486 34.1585 0.00774243 27 0V0ZM36 29.25H29.25V36C29.25 36.5967 29.013 37.169 28.591 37.591C28.169 38.0129 27.5968 38.25 27 38.25C26.4033 38.25 25.831 38.0129 25.409 37.591C24.9871 37.169 24.75 36.5967 24.75 36V29.25H18C17.4033 29.25 16.831 29.0129 16.409 28.591C15.9871 28.169 15.75 27.5967 15.75 27C15.75 26.4033 15.9871 25.831 16.409 25.409C16.831 24.9871 17.4033 24.75 18 24.75H24.75V18C24.75 17.4033 24.9871 16.831 25.409 16.409C25.831 15.9871 26.4033 15.75 27 15.75C27.5968 15.75 28.169 15.9871 28.591 16.409C29.013 16.831 29.25 17.4033 29.25 18V24.75H36C36.5967 24.75 37.169 24.9871 37.591 25.409C38.013 25.831 38.25 26.4033 38.25 27C38.25 27.5967 38.013 28.169 37.591 28.591C37.169 29.0129 36.5967 29.25 36 29.25Z" fill="#CCCCCC"/>
</svg>
