<svg width="10" height="10" viewBox="0 0 10 10" fill="none" xmlns="http://www.w3.org/2000/svg">
<g clip-path="url(#clip0_1494_20467)">
<path d="M0.488333 7.96582C0.175751 8.27831 9.43957e-05 8.70217 0 9.14416L0 9.99957H0.855417C1.29741 9.99948 1.72126 9.82382 2.03375 9.51124L7.59333 3.95166L6.04792 2.40625L0.488333 7.96582Z" fill="#49B2FF"/>
<path d="M9.64339 0.356521C9.54192 0.254953 9.42144 0.174378 9.28881 0.119403C9.15619 0.0644289 9.01403 0.0361328 8.87047 0.0361328C8.7269 0.0361328 8.58475 0.0644289 8.45212 0.119403C8.3195 0.174378 8.19902 0.254953 8.09755 0.356521L6.63672 1.81777L8.18214 3.36319L9.64339 1.90235C9.74495 1.80089 9.82553 1.68041 9.8805 1.54778C9.93548 1.41516 9.96377 1.273 9.96377 1.12944C9.96377 0.985873 9.93548 0.843716 9.8805 0.711093C9.82553 0.578471 9.74495 0.457984 9.64339 0.356521Z" fill="#49B2FF"/>
</g>
<defs>
<clipPath id="clip0_1494_20467">
<rect width="10" height="10" fill="white"/>
</clipPath>
</defs>
</svg>
