<svg width="29" height="29" viewBox="0 0 29 29" fill="none" xmlns="http://www.w3.org/2000/svg">
<path d="M28.6456 26.9389L21.433 19.7264C23.3985 17.3225 24.3649 14.2552 24.1323 11.1588C23.8996 8.0624 22.4858 5.17388 20.1831 3.0907C17.8805 1.00752 14.8652 -0.110938 11.7611 -0.0333242C8.65695 0.0442893 5.70138 1.31203 3.50573 3.50768C1.31008 5.70333 0.0423362 8.6589 -0.0352773 11.7631C-0.112891 14.8672 1.00556 17.8824 3.08874 20.1851C5.17192 22.4877 8.06044 23.9016 11.1568 24.1342C14.2532 24.3669 17.3206 23.4005 19.7245 21.435L26.937 28.6475C27.1649 28.8676 27.4701 28.9894 27.7869 28.9867C28.1038 28.9839 28.4068 28.8568 28.6309 28.6328C28.8549 28.4088 28.982 28.1057 28.9847 27.7889C28.9875 27.4721 28.8657 27.1668 28.6456 26.9389ZM12.0829 21.7516C10.1711 21.7516 8.30211 21.1846 6.71244 20.1224C5.12276 19.0603 3.88376 17.5505 3.15211 15.7842C2.42046 14.0178 2.22903 12.0742 2.60202 10.199C2.97501 8.32388 3.89567 6.60144 5.24758 5.24954C6.59949 3.89763 8.32193 2.97697 10.1971 2.60398C12.0722 2.23099 14.0159 2.42242 15.7822 3.15407C17.5486 3.88571 19.0583 5.12471 20.1205 6.71439C21.1827 8.30406 21.7496 10.173 21.7496 12.0849C21.7467 14.6478 20.7274 17.1049 18.9151 18.9171C17.1029 20.7293 14.6458 21.7487 12.0829 21.7516Z" fill="white"/>
</svg>
